<svg width="327" height="71" viewBox="0 0 327 71" fill="none" xmlns="http://www.w3.org/2000/svg">
<path d="M69.584 49.864C67.88 49.864 66.512 49.816 65.48 49.72C64.472 49.648 63.668 49.504 63.068 49.288C62.444 49.024 61.988 48.664 61.7 48.208C61.412 47.752 61.268 47.14 61.268 46.372V45.472C61.292 45.232 61.304 44.872 61.304 44.392C61.328 44.152 61.34 43.792 61.34 43.312C61.364 43.072 61.376 42.82 61.376 42.556C61.376 41.644 61.352 40.276 61.304 38.452L61.268 36.292C61.148 34.588 61.088 32.524 61.088 30.1V28.876V27.76C61.088 26.92 61.124 26.308 61.196 25.924C61.244 25.804 61.268 25.696 61.268 25.6C61.292 25.504 61.304 25.432 61.304 25.384C61.328 24.952 61.508 24.628 61.844 24.412C62.036 24.34 62.3 24.304 62.636 24.304C62.852 24.304 63.08 24.292 63.32 24.268C63.584 24.244 63.86 24.232 64.148 24.232C64.532 24.232 65.132 24.208 65.948 24.16C66.164 24.136 66.416 24.112 66.704 24.088C67.016 24.064 67.364 24.052 67.748 24.052C68.516 24.004 69.056 23.98 69.368 23.98C71.336 23.98 73.64 24.172 76.28 24.556C78.128 24.772 79.568 25 80.6 25.24C82.352 25.672 83.684 26.236 84.596 26.932C85.772 27.94 86.36 29.224 86.36 30.784C86.36 32.8 85.532 34.324 83.876 35.356C83.756 35.428 83.648 35.488 83.552 35.536C83.456 35.56 83.36 35.596 83.264 35.644C82.832 35.764 82.46 35.92 82.148 36.112C82.1 36.136 82.04 36.184 81.968 36.256C81.896 36.304 81.836 36.376 81.788 36.472C81.788 36.472 81.788 36.484 81.788 36.508C81.812 36.508 81.824 36.52 81.824 36.544C81.824 36.544 81.848 36.568 81.896 36.616C83.552 37.288 84.896 38.116 85.928 39.1C86.696 39.964 87.08 40.864 87.08 41.8C87.08 43.12 86.276 44.452 84.668 45.796C83.084 47.044 81.128 47.992 78.8 48.64C77.072 49.12 75.368 49.456 73.688 49.648C72.416 49.792 71.048 49.864 69.584 49.864ZM73.868 33.052C73.988 33.052 74.12 33.016 74.264 32.944C74.888 32.728 75.476 32.464 76.028 32.152C76.364 32.008 76.688 31.864 77 31.72C77.336 31.552 77.564 31.444 77.684 31.396L78.008 31.252L78.296 31.18C78.392 31.18 78.44 31.12 78.44 31C78.44 30.592 77.996 30.316 77.108 30.172C76.58 30.052 75.92 29.992 75.128 29.992C74.408 29.992 73.952 30.268 73.76 30.82C73.64 31.108 73.58 31.468 73.58 31.9C73.58 32.332 73.58 32.596 73.58 32.692V32.872C73.58 32.992 73.676 33.052 73.868 33.052ZM73.328 43.456C73.352 43.456 73.364 43.444 73.364 43.42C75.044 42.604 76.952 41.716 79.088 40.756C79.184 40.66 79.244 40.612 79.268 40.612L79.448 40.504C78.44 40.192 77.444 39.988 76.46 39.892C75.212 39.844 74.18 39.82 73.364 39.82C73.1 39.82 72.968 39.988 72.968 40.324V43.204C72.968 43.372 73.064 43.456 73.256 43.456H73.328ZM91.9873 48.856C91.9393 48.856 91.9033 48.808 91.8793 48.712C91.7113 48.496 91.5913 48.232 91.5193 47.92C91.4473 47.8 91.3873 47.644 91.3393 47.452C91.1233 47.02 90.9673 46.42 90.8713 45.652C90.7753 44.548 90.7273 43.672 90.7273 43.024C90.7033 42.736 90.6913 42.34 90.6913 41.836V40.972C90.6913 40.252 90.6793 39.688 90.6553 39.28C90.6313 38.848 90.6193 37.996 90.6193 36.724C90.6193 33.316 90.6913 30.688 90.8353 28.84C90.8353 28.552 91.2433 28.336 92.0593 28.192H93.1393H94.0393C95.4073 28.192 96.4273 28.216 97.0993 28.264C98.1073 28.336 99.1273 28.372 100.159 28.372C100.399 28.372 100.579 28.36 100.699 28.336H101.239L101.419 28.48C102.211 28.312 103.027 28.204 103.867 28.156C104.707 28.108 105.727 28.084 106.927 28.084C106.975 28.084 107.035 28.12 107.107 28.192H108.259C108.451 28.192 108.595 28.3 108.691 28.516C108.811 28.732 108.907 29.044 108.979 29.452C109.075 29.764 109.147 30.148 109.195 30.604C109.291 31.204 109.375 31.6 109.447 31.792C109.447 32.464 109.327 32.8 109.087 32.8C109.063 32.8 109.027 32.764 108.979 32.692L108.835 32.656C108.715 32.632 108.583 32.644 108.439 32.692C108.295 32.764 108.139 32.8 107.971 32.8C107.827 32.8 107.707 32.764 107.611 32.692C107.563 32.668 107.455 32.656 107.287 32.656C107.071 32.656 106.819 32.692 106.531 32.764C106.435 32.788 106.243 32.824 105.955 32.872C105.691 32.92 105.379 32.944 105.019 32.944C103.987 32.944 103.243 32.968 102.787 33.016C102.523 33.04 102.271 33.112 102.031 33.232V33.16C101.935 33.16 101.851 33.28 101.779 33.52C101.611 33.928 101.503 34.492 101.455 35.212C101.431 35.428 101.419 35.668 101.419 35.932C101.419 36.196 101.455 36.376 101.527 36.472C101.623 36.568 101.767 36.616 101.959 36.616C102.103 36.616 102.223 36.568 102.319 36.472C102.367 36.472 102.427 36.484 102.499 36.508C102.571 36.532 102.631 36.568 102.679 36.616H105.739C105.763 36.568 105.799 36.532 105.847 36.508C105.895 36.484 105.943 36.472 105.991 36.472C106.231 36.472 106.411 36.508 106.531 36.58C106.675 36.652 106.963 36.724 107.395 36.796C107.635 36.796 107.803 36.868 107.899 37.012C108.019 37.18 108.079 37.336 108.079 37.48L108.835 39.856C108.907 40.24 108.547 40.492 107.755 40.612C107.299 40.708 106.423 40.756 105.127 40.756H103.579H102.499C102.163 40.756 101.911 40.78 101.743 40.828C101.575 40.852 101.467 40.936 101.419 41.08C101.323 41.2 101.275 41.392 101.275 41.656V41.8C101.275 41.92 101.287 42.004 101.311 42.052L101.275 42.844C101.251 43.012 101.239 43.264 101.239 43.6V43.96V44.284V44.5C102.319 44.5 103.423 44.464 104.551 44.392C105.655 44.32 106.747 44.284 107.827 44.284C107.899 44.284 107.959 44.344 108.007 44.464C108.055 44.56 108.079 44.68 108.079 44.824C108.127 44.968 108.151 45.124 108.151 45.292C108.199 45.652 108.271 45.988 108.367 46.3L108.619 47.344V48.064V48.172V48.46L108.331 48.712H108.079H107.971C107.707 48.712 107.539 48.7 107.467 48.676C107.395 48.628 107.311 48.604 107.215 48.604C107.167 48.628 107.095 48.664 106.999 48.712C106.903 48.76 106.819 48.808 106.747 48.856V48.676L106.315 48.712H105.775C105.679 48.712 105.607 48.688 105.559 48.64L105.271 48.604C104.383 48.604 103.759 48.688 103.399 48.856H91.9873ZM120.277 49.36C119.005 49.36 117.949 49.3 117.109 49.18C116.677 49.156 116.161 49.06 115.561 48.892L114.409 48.352H114.193C114.121 48.352 114.049 48.292 113.977 48.172C113.953 48.148 113.929 48.112 113.905 48.064C113.905 47.992 113.881 47.908 113.833 47.812C113.713 47.5 113.641 47.14 113.617 46.732C113.593 46.3 113.581 45.88 113.581 45.472C113.581 44.944 113.593 44.548 113.617 44.284C113.617 44.14 113.617 43.972 113.617 43.78C113.641 43.588 113.641 43.372 113.617 43.132C113.473 38.668 113.401 35.356 113.401 33.196V32.224V31.432C113.401 31.072 113.413 30.796 113.437 30.604C113.437 30.436 113.461 30.112 113.509 29.632C113.533 29.632 113.557 29.608 113.581 29.56C113.605 29.512 113.629 29.476 113.653 29.452C113.629 29.476 113.785 29.344 114.121 29.056C114.193 28.984 114.313 28.876 114.481 28.732C114.553 28.684 114.613 28.636 114.661 28.588C114.733 28.54 114.805 28.492 114.877 28.444C114.973 28.372 115.045 28.288 115.093 28.192C115.261 28.216 115.513 28.228 115.849 28.228C116.257 28.228 116.617 28.216 116.929 28.192C117.241 28.168 117.505 28.144 117.721 28.12C118.273 28.048 119.125 28.012 120.277 28.012C121.933 28.012 123.853 28.156 126.037 28.444C126.181 28.468 126.433 28.504 126.793 28.552C127.153 28.576 127.489 28.624 127.801 28.696C129.265 28.864 130.477 29.164 131.437 29.596C132.661 30.124 133.525 30.856 134.029 31.792C134.317 32.32 134.461 32.92 134.461 33.592C134.461 33.928 134.437 34.216 134.389 34.456C134.341 34.936 134.305 35.212 134.281 35.284C134.137 35.74 133.873 36.172 133.489 36.58C133.057 37.06 132.673 37.36 132.337 37.48C132.337 37.528 132.265 37.576 132.121 37.624C132.097 37.624 131.953 37.684 131.689 37.804C131.641 37.828 131.569 37.864 131.473 37.912C131.401 37.936 131.341 37.96 131.293 37.984L131.041 38.092C130.777 38.26 130.621 38.38 130.573 38.452L130.717 38.56C131.485 38.896 132.121 39.208 132.625 39.496C133.129 39.784 133.561 40.12 133.921 40.504C134.761 41.416 135.181 42.58 135.181 43.996V44.32C135.181 44.464 135.157 44.536 135.109 44.536L135.001 44.752L134.821 45.004C134.725 45.1 134.605 45.232 134.461 45.4C134.317 45.568 134.137 45.748 133.921 45.94L133.489 46.3C133.153 46.588 132.817 46.816 132.48 46.984C132.145 47.128 131.701 47.284 131.148 47.452C131.077 47.5 130.885 47.584 130.573 47.704C130.165 47.896 129.865 48.016 129.673 48.064C129.361 48.184 129.073 48.292 128.809 48.388C128.545 48.484 128.329 48.568 128.161 48.64C127.921 48.688 127.633 48.712 127.297 48.712L126.001 48.892C124.657 49.036 123.889 49.108 123.697 49.108C123.553 49.156 123.313 49.18 122.977 49.18C122.761 49.204 122.509 49.216 122.221 49.216L122.077 49.288L121.933 49.36H120.277ZM124.021 35.572H124.129C124.177 35.572 124.213 35.572 124.237 35.572C124.285 35.548 124.309 35.536 124.309 35.536C124.597 35.416 124.969 35.248 125.425 35.032L126.217 34.672C126.361 34.6 126.649 34.468 127.081 34.276C127.177 34.204 127.249 34.156 127.297 34.132C127.369 34.108 127.417 34.096 127.441 34.096L127.801 33.916C127.729 33.772 127.585 33.652 127.369 33.556C127.177 33.46 126.901 33.352 126.541 33.232C125.941 33.112 125.461 33.052 125.101 33.052C124.453 33.052 124.045 33.268 123.877 33.7C123.757 33.988 123.697 34.516 123.697 35.284C123.697 35.308 123.697 35.356 123.697 35.428C123.697 35.476 123.709 35.512 123.733 35.536C123.757 35.56 123.805 35.572 123.877 35.572H124.021ZM123.553 44.32C123.577 44.32 123.589 44.308 123.589 44.284L128.377 42.052L128.629 41.836C128.533 41.788 128.437 41.764 128.341 41.764L128.053 41.62C127.837 41.572 127.561 41.536 127.225 41.512C126.889 41.464 126.601 41.404 126.361 41.332C126.193 41.332 125.953 41.32 125.641 41.296C125.329 41.248 125.041 41.224 124.777 41.224H123.589C123.397 41.224 123.301 41.38 123.301 41.692V44.176C123.301 44.272 123.361 44.32 123.481 44.32H123.553ZM140.081 49.468C139.649 49.468 139.373 49.036 139.253 48.172C139.181 47.812 139.145 47.488 139.145 47.2C139.145 46.816 139.133 46.576 139.109 46.48C139.085 45.784 139.025 44.68 138.929 43.168L138.821 41.8C138.677 39.688 138.605 38.128 138.605 37.12V28.372C138.605 28.18 138.821 28.036 139.253 27.94C139.493 27.868 139.829 27.832 140.261 27.832C140.549 27.832 140.861 27.856 141.197 27.904C141.533 27.928 141.785 27.94 141.953 27.94C142.313 27.988 142.877 28.012 143.645 28.012L143.789 27.904H145.373C145.445 27.976 145.529 28.012 145.625 28.012H145.769C145.793 27.988 145.853 27.976 145.949 27.976C145.997 27.952 146.069 27.94 146.165 27.94C146.189 27.916 146.213 27.904 146.237 27.904C146.261 27.904 146.273 27.904 146.273 27.904C146.345 27.904 146.429 27.928 146.525 27.976C146.621 28 146.693 28.012 146.741 28.012H149.405L149.513 34.204C149.513 34.228 149.489 34.312 149.441 34.456C149.417 34.576 149.393 34.744 149.369 34.96C149.297 35.824 149.261 36.508 149.261 37.012V44.032L149.153 45.4C149.081 46 149.057 46.492 149.081 46.876C149.081 47.38 149.057 47.788 149.009 48.1C148.985 48.388 148.913 48.616 148.793 48.784C148.649 48.952 148.421 49.036 148.109 49.036L148.073 49L147.965 48.964C147.917 48.964 147.893 48.976 147.893 49H147.713C147.569 49.048 147.485 49.084 147.461 49.108C147.341 49.108 147.065 49.072 146.633 49L146.129 48.964C146.009 48.964 145.937 49.012 145.913 49.108H143.213H142.709L141.773 49.288L140.909 49.396L140.081 49.468ZM159.202 49C158.29 48.976 156.718 48.964 154.486 48.964C154.15 48.964 153.922 48.748 153.802 48.316C153.73 48.076 153.694 47.656 153.694 47.056C153.694 45.976 153.67 45.028 153.622 44.212C153.622 43.468 153.598 42.112 153.55 40.144L153.514 35.824V29.02C153.514 28.852 153.598 28.672 153.766 28.48C153.958 28.288 154.138 28.192 154.306 28.192L156.394 28.228C156.73 28.252 157.222 28.264 157.87 28.264C158.566 28.288 159.43 28.3 160.462 28.3C161.998 28.3 163.198 28.288 164.062 28.264C164.902 28.216 166.306 28.192 168.274 28.192C169.618 28.192 170.854 28.432 171.982 28.912C173.398 29.512 174.526 30.448 175.366 31.72C176.326 33.208 176.806 35.14 176.806 37.516C176.806 39.652 176.566 41.44 176.086 42.88C175.63 44.32 174.886 45.484 173.854 46.372C172.798 47.284 171.406 47.956 169.678 48.388C167.974 48.796 165.838 49 163.27 49H159.202ZM163.522 44.932C164.05 44.932 164.398 44.908 164.566 44.86C164.734 44.812 164.854 44.752 164.926 44.68C165.286 44.32 165.622 43.252 165.934 41.476C166.198 39.82 166.33 38.272 166.33 36.832V36.256C166.33 35.416 166.27 34.612 166.15 33.844C166.054 32.908 165.862 32.14 165.574 31.54C165.406 31.276 165.19 31.144 164.926 31.144C164.71 31.144 164.446 31.204 164.134 31.324L163.882 31.432C163.882 31.984 163.858 33.22 163.81 35.14L163.774 37.372C163.774 37.852 163.762 38.224 163.738 38.488L163.702 39.604L163.522 44.932ZM180.909 49.036C180.453 49.036 180.273 48.628 180.369 47.812C180.369 47.524 180.429 47.2 180.549 46.84C180.549 46.672 180.561 46.54 180.585 46.444C180.609 46.324 180.621 46.228 180.621 46.156C181.173 43.54 181.785 40.96 182.457 38.416L184.905 28.84C184.905 28.792 184.941 28.732 185.013 28.66C185.085 28.588 185.157 28.528 185.229 28.48H185.481C185.769 28.48 185.997 28.444 186.165 28.372C186.309 28.348 186.561 28.336 186.921 28.336C187.497 28.336 187.929 28.348 188.217 28.372C188.649 28.444 189.093 28.48 189.549 28.48L191.421 28.444C191.613 28.396 191.841 28.372 192.105 28.372L193.689 28.3H194.877C195.333 28.3 195.777 28.312 196.209 28.336H197.217C197.457 28.36 197.805 28.372 198.261 28.372H199.629C199.701 28.372 199.773 28.384 199.845 28.408C199.917 28.432 199.977 28.456 200.025 28.48C200.121 28.528 200.241 28.552 200.385 28.552H200.709C200.877 28.672 200.961 28.792 200.961 28.912L203.517 38.416C204.309 41.464 204.933 44.044 205.389 46.156C205.389 46.276 205.425 46.504 205.497 46.84C205.593 47.32 205.641 47.704 205.641 47.992C205.641 48.16 205.617 48.388 205.569 48.676C205.449 48.916 205.281 49.036 205.065 49.036H204.669C204.357 49.036 204.117 49.024 203.949 49H203.157H202.401H201.789C201.621 49 201.525 48.988 201.501 48.964H199.521L199.485 48.892C199.437 48.844 199.365 48.82 199.269 48.82L199.161 48.892C199.161 48.94 199.137 48.964 199.089 48.964H198.981H198.729C198.609 48.916 198.393 48.892 198.081 48.892C197.505 48.844 197.025 48.82 196.641 48.82C196.377 48.268 196.065 47.056 195.705 45.184C195.201 45.256 194.625 45.292 193.977 45.292H193.041H192.141C192.045 45.652 191.985 45.952 191.961 46.192C191.937 46.312 191.841 46.72 191.673 47.416C191.505 48.112 191.349 48.58 191.205 48.82L190.989 48.892C190.917 48.916 190.857 48.94 190.809 48.964C190.761 48.964 190.737 48.964 190.737 48.964H190.665C190.521 48.964 190.425 48.94 190.377 48.892C190.281 48.844 190.221 48.82 190.197 48.82L188.829 48.892H187.821C187.701 48.916 187.605 48.94 187.533 48.964C187.461 48.964 187.413 48.964 187.389 48.964H184.509H184.221C184.005 48.988 183.561 49 182.889 49H182.025C181.881 49.024 181.653 49.036 181.341 49.036H180.909ZM195.381 41.332C195.237 40.516 195.153 40.036 195.129 39.892L194.841 38.164C194.793 37.828 194.745 37.528 194.697 37.264C194.649 36.976 194.613 36.712 194.589 36.472C194.517 36.184 194.457 35.92 194.409 35.68C194.385 35.416 194.349 35.176 194.301 34.96C194.277 34.816 194.253 34.636 194.229 34.42C194.205 34.18 194.169 34.012 194.121 33.916L194.049 33.484C194.049 33.388 194.025 33.304 193.977 33.232L193.941 33.016C193.893 33.16 193.869 33.232 193.869 33.232V33.376V33.484C193.869 33.508 193.857 33.556 193.833 33.628C193.809 33.676 193.785 33.772 193.761 33.916C193.737 34.036 193.713 34.192 193.689 34.384C193.665 34.552 193.629 34.744 193.581 34.96L193.329 36.436L193.041 38.092L192.933 38.884C192.885 39.076 192.837 39.388 192.789 39.82C192.573 40.9 192.477 41.392 192.501 41.296H194.085C194.109 41.272 194.145 41.248 194.193 41.224C194.241 41.176 194.277 41.152 194.301 41.152H194.409C194.529 41.152 194.625 41.164 194.697 41.188C194.793 41.212 194.877 41.236 194.949 41.26C195.093 41.308 195.237 41.332 195.381 41.332ZM213.799 49.72L212.971 49.576C212.179 49.456 211.519 49.312 210.991 49.144C210.703 49.12 210.451 49.036 210.235 48.892C210.043 48.82 209.923 48.724 209.875 48.604L209.083 44.14V43.96C209.083 43.792 209.095 43.672 209.119 43.6C209.167 43.504 209.251 43.444 209.371 43.42C210.931 44.02 212.467 44.32 213.979 44.32C214.459 44.32 214.831 44.332 215.095 44.356C216.007 44.356 216.667 44.236 217.075 43.996C217.291 43.852 217.399 43.648 217.399 43.384C217.399 43 217.279 42.688 217.039 42.448C216.799 42.184 216.451 41.956 215.995 41.764L214.843 41.332C214.507 41.26 214.123 41.128 213.691 40.936C213.691 40.912 213.679 40.9 213.655 40.9C213.631 40.876 213.607 40.84 213.583 40.792C213.487 40.768 213.283 40.648 212.971 40.432L212.755 40.324C212.803 40.324 212.827 40.312 212.827 40.288C212.827 40.264 212.791 40.24 212.719 40.216C212.647 40.168 212.503 40.096 212.287 40C212.095 39.88 211.927 39.748 211.783 39.604C211.567 39.484 211.459 39.34 211.459 39.172V38.992C210.859 38.992 210.343 38.368 209.911 37.12C209.551 35.848 209.371 34.948 209.371 34.42C209.371 32.188 210.331 30.472 212.251 29.272C213.811 28.288 215.959 27.628 218.695 27.292C220.471 27.1 222.679 27.004 225.319 27.004C225.655 27.124 225.919 27.196 226.111 27.22C226.543 27.244 226.831 27.388 226.975 27.652C227.047 27.772 227.107 28.012 227.155 28.372C227.227 28.756 227.299 29.872 227.371 31.72C227.419 31.768 227.443 31.84 227.443 31.936C227.443 32.128 227.179 32.284 226.651 32.404C226.075 32.476 225.703 32.512 225.535 32.512L224.707 32.62C223.771 32.74 223.159 32.824 222.871 32.872C221.887 33.04 221.203 33.34 220.819 33.772C220.579 34.06 220.459 34.36 220.459 34.672C220.459 34.84 220.483 34.972 220.531 35.068C220.579 35.164 220.699 35.272 220.891 35.392C221.107 35.512 221.731 35.812 222.763 36.292C223.867 36.772 224.971 37.396 226.075 38.164C227.011 38.812 227.683 39.676 228.091 40.756C228.307 41.212 228.415 41.812 228.415 42.556C228.415 43.228 228.331 43.804 228.163 44.284C227.539 45.868 226.363 47.164 224.635 48.172C223.819 48.652 222.967 49.024 222.079 49.288C221.191 49.576 220.339 49.72 219.523 49.72L214.231 49.828L213.799 49.72Z" fill="black"/>
<path d="M19.8793 17.3679C19.8833 20.8229 20.0961 24.2745 20.5166 27.7039C21.3415 31.6817 24.6344 34.5095 28.4609 35.8478C30.3389 36.4916 32.3289 36.7437 34.3081 36.5883L37.8999 53.9073C33.363 55.0525 30.0741 56.9218 30.3863 58.4273C30.6985 59.9327 35.2152 60.413 40.417 59.3342C45.6188 58.2554 49.604 56.0501 49.2841 54.508C49.2391 54.3189 49.1458 54.1447 49.0133 54.0024C48.0251 52.9308 44.6305 52.6901 40.5804 53.3513L36.9886 36.0324C42.4939 34.2013 47.3191 28.4133 46.0727 22.4037C45.0953 19.1014 43.9363 15.8556 42.601 12.6811M46.239 24.0671C45.716 24.3507 45.1748 24.5994 44.6189 24.8116C41.4311 26.164 37.9001 26.4857 34.5203 25.7315C29.8174 24.7943 24.9552 25.0437 20.3729 26.4571" stroke="black" stroke-linecap="round" stroke-linejoin="round"/>
<path d="M31.8901 18.1578C38.1631 16.8568 42.9563 14.3939 42.596 12.6566C42.2357 10.9194 36.8584 10.5657 30.5854 11.8667C24.3123 13.1677 19.5191 15.6307 19.8794 17.3679C20.2397 19.1052 25.6171 19.4588 31.8901 18.1578Z" stroke="black" stroke-linecap="round" stroke-linejoin="round"/>
<path d="M34.3081 36.5883C34.3081 36.5883 35.3198 36.4806 35.6503 36.4121C35.9808 36.3435 36.9886 36.0324 36.9886 36.0324" stroke="black" stroke-linecap="round" stroke-linejoin="round"/>
<path d="M263.833 51.1667H235.667V29.5H263.833V51.1667Z" stroke="black" stroke-width="1.5"/>
<path d="M263.833 29.5H268.167C271.757 29.5 274.667 32.4101 274.667 36C274.667 39.59 271.757 42.5 268.167 42.5H263.833" stroke="black" stroke-width="1.5"/>
<path d="M229.167 57.6667H274.667" stroke="black" stroke-width="1.5"/>
<path d="M245.417 23C243.024 23 241.083 21.0599 241.083 18.6667C241.083 16.2734 243.024 14.3333 245.417 14.3333" stroke="black" stroke-width="1.5"/>
<path d="M258.417 23C256.024 23 254.083 21.0599 254.083 18.6667C254.083 16.2734 256.024 14.3333 258.417 14.3333" stroke="black" stroke-width="1.5"/>
</svg>
