<svg fill="none" height="88" viewBox="0 0 157 88" width="157" xmlns="http://www.w3.org/2000/svg" xmlns:xlink="http://www.w3.org/1999/xlink"><clipPath id="a"><path d="m.075684.003906h156.208v87.9493h-156.208z"/></clipPath><g clip-path="url(#a)"><path d="m148.958 79.1725c-1.449-.0046-2.899 0-4.373 0h-1.43l-.147-.9327c-.146-.9116-.273-1.7065-.384-2.5105-1.777-12.8537-5.199-23.895-10.464-33.7578-8.581-16.0803-21.593-26.4736-38.664-30.8921-1.763-.4595-3.5718-.875-5.3216-1.27935-.6564-.15227-1.3173-.30552-1.9815-.45957 0-.20543.0059-.4043.0085-.60055.0105-.74231.0204-1.44433-.0203-2.14399-.1438-2.48163-.7443-4.10977-1.889-5.12381-1.1446-1.014041-2.8124-1.4085723-5.2625-1.254989-2.8373.17918-5.8309.500783-9.423 1.012069-2.6844.38199-4.5477.88667-5.5368 2.21706-.9891 1.3304-.9404 3.32557-.525 6.10385-.0151.0361-.0354.07581-.0564.12109-.0072.01575-.0146.0317-.0225.04811l-.7101.16343c-.7876.18115-1.6044.36975-2.4215.56275-18.256 4.3148-31.3322 14.5127-38.8637 30.3108-6.4058 13.4371-9.3993 27.8518-11.4622 40.2487l-1.6556.1739c-1.83051.1916-3.66122.3833-5.48912.5907-.43381.021-.8576.1359-1.24281.3367-.3852.2008-.722304.4824-.988352.8257-.181155.2724-.298757.5828-.344193.907-.045436.3249-.017804.6551.081401.9675.203937.5415.530809 1.0291.954384 1.4236.42357.3944.93218.6852 1.48701.8506 1.26694.2861 2.56555.4102 3.86369.3682h.65633c13.20416-.0702 25.13166-.1378 37.39206-.2626 7.2464-.0741 14.4924-.1614 21.7382-.2625 12.6358-.1641 25.7022-.3327 38.5526-.3892 9.825-.042 19.821.0657 29.487.1693 4.878.0526 9.756.0998 14.635.1412 3.507.0256 6.757-.405 6.837-3.6828.029-.4397-.034-.8814-.184-1.2956-.15-.4148-.384-.7935-.688-1.1138-1.032-1.0718-2.984-1.5712-6.143-1.5804zm-15.862-.7463v.0125l-115.6083 2.2525c.0295-.2198.0577-.441.0859-.6616.1033-1.0035.2813-1.9965.532-2.9738.4432-1.5555.8818-3.1124 1.3159-4.6705 2.2381-7.9875 4.5518-16.2462 7.8709-24.0395 6.8587-16.1013 18.4901-25.7198 35.5614-29.4038 4.2475-.9272 8.5826-1.3991 12.9302-1.4069 8.9026.0227 17.6851 2.0584 25.69 5.9545 8.692 4.1546 15.753 10.942 20.975 20.1734 5.382 9.5058 8.861 20.4701 10.628 33.5195.041.4134.047.8296.019 1.2437zm-62.7753-69.70294c2.7297-.60475 5.5178-.90148 8.3132-.88513.1923.24822.3675.5084.525.7794.021.03478.0433.07029.0663.10573z" fill="#000"/></g></svg>