<svg width="334" height="77" viewBox="0 0 334 77" fill="none" xmlns="http://www.w3.org/2000/svg">
<path d="M75.504 49.216C73.992 49.216 72.864 49.192 72.12 49.144C70.968 49.096 69.96 48.952 69.096 48.712C69 48.712 68.904 48.568 68.808 48.28C68.736 48.064 68.7 47.896 68.7 47.776L68.016 34.672V33.952C68.016 33.784 68.028 33.484 68.052 33.052C68.076 32.62 68.088 32.044 68.088 31.324L68.16 29.452C68.16 28.972 68.172 28.612 68.196 28.372C68.196 27.652 68.22 26.956 68.268 26.284C68.268 26.068 68.268 25.924 68.268 25.852C68.292 25.756 68.304 25.696 68.304 25.672C68.352 25.648 68.436 25.588 68.556 25.492C68.7 25.372 68.82 25.276 68.916 25.204C69.156 24.988 69.504 24.88 69.96 24.88H72.048H72.624C72.864 24.904 73.308 24.916 73.956 24.916C74.652 24.916 75.216 24.928 75.648 24.952H77.304H78.636H79.176C79.8 24.952 80.22 25.048 80.436 25.24C80.724 25.456 80.868 25.876 80.868 26.5V26.86C80.868 26.956 80.856 27.052 80.832 27.148C80.808 27.244 80.796 27.34 80.796 27.436L80.724 28.012L80.688 28.444C80.688 28.54 80.712 28.636 80.76 28.732C80.784 28.828 80.796 28.948 80.796 29.092C80.796 29.74 80.784 30.208 80.76 30.496L80.724 31.972H81.66C81.972 32.044 82.308 32.08 82.668 32.08C83.148 32.128 83.484 32.152 83.676 32.152C83.892 32.2 84.216 32.224 84.648 32.224L84.684 29.776C84.708 29.56 84.72 29.248 84.72 28.84L84.756 27.364V27.076C84.756 26.692 84.768 26.356 84.792 26.068C84.816 25.756 84.864 25.54 84.936 25.42C85.08 25.228 85.248 25.132 85.44 25.132C85.584 25.084 85.92 25.06 86.448 25.06L87.42 25.024C88.116 25.024 88.692 25 89.148 24.952H91.2C92.16 24.952 92.856 24.94 93.288 24.916C94.128 24.916 94.704 24.904 95.016 24.88H95.988C96.564 24.88 96.948 24.952 97.14 25.096C97.284 25.192 97.38 25.336 97.428 25.528C97.476 25.696 97.5 25.948 97.5 26.284C97.5 27.22 97.476 28.48 97.428 30.064C97.332 31.6 97.284 32.836 97.284 33.772C97.284 33.916 97.308 34.036 97.356 34.132C97.356 34.228 97.368 34.312 97.392 34.384C97.416 34.432 97.428 34.468 97.428 34.492L96.528 48.172C96.528 48.292 96.444 48.46 96.276 48.676C96.06 48.892 95.868 49 95.7 49H85.8C85.728 49 85.656 48.94 85.584 48.82C85.512 48.7 85.452 48.544 85.404 48.352C85.38 48.232 85.344 48.076 85.296 47.884C85.272 47.668 85.248 47.404 85.224 47.092L84.828 40.432H84.576C83.928 40.432 83.412 40.42 83.028 40.396C82.116 40.348 81.552 40.324 81.336 40.324H81.048C80.832 40.324 80.724 40.528 80.724 40.936C80.724 43.912 80.712 45.808 80.688 46.624C80.688 46.816 80.652 47.272 80.58 47.992C80.532 48.544 80.328 48.88 79.968 49L79.428 49.036C77.556 49.132 76.248 49.192 75.504 49.216ZM102.925 48.856C102.877 48.856 102.841 48.808 102.817 48.712C102.649 48.496 102.529 48.232 102.457 47.92C102.385 47.8 102.325 47.644 102.277 47.452C102.061 47.02 101.905 46.42 101.809 45.652C101.713 44.548 101.665 43.672 101.665 43.024C101.641 42.736 101.629 42.34 101.629 41.836V40.972C101.629 40.252 101.617 39.688 101.593 39.28C101.569 38.848 101.557 37.996 101.557 36.724C101.557 33.316 101.629 30.688 101.773 28.84C101.773 28.552 102.181 28.336 102.997 28.192H104.077H104.977C106.345 28.192 107.365 28.216 108.037 28.264C109.045 28.336 110.065 28.372 111.097 28.372C111.337 28.372 111.517 28.36 111.637 28.336H112.177L112.357 28.48C113.149 28.312 113.965 28.204 114.805 28.156C115.645 28.108 116.665 28.084 117.865 28.084C117.913 28.084 117.973 28.12 118.045 28.192H119.197C119.389 28.192 119.533 28.3 119.629 28.516C119.749 28.732 119.845 29.044 119.917 29.452C120.013 29.764 120.085 30.148 120.133 30.604C120.229 31.204 120.313 31.6 120.385 31.792C120.385 32.464 120.265 32.8 120.025 32.8C120.001 32.8 119.965 32.764 119.917 32.692L119.773 32.656C119.653 32.632 119.521 32.644 119.377 32.692C119.233 32.764 119.077 32.8 118.909 32.8C118.765 32.8 118.645 32.764 118.549 32.692C118.501 32.668 118.393 32.656 118.225 32.656C118.009 32.656 117.757 32.692 117.469 32.764C117.373 32.788 117.181 32.824 116.893 32.872C116.629 32.92 116.317 32.944 115.957 32.944C114.925 32.944 114.181 32.968 113.725 33.016C113.461 33.04 113.209 33.112 112.969 33.232V33.16C112.873 33.16 112.789 33.28 112.717 33.52C112.549 33.928 112.441 34.492 112.393 35.212C112.369 35.428 112.357 35.668 112.357 35.932C112.357 36.196 112.393 36.376 112.465 36.472C112.561 36.568 112.705 36.616 112.897 36.616C113.041 36.616 113.161 36.568 113.257 36.472C113.305 36.472 113.365 36.484 113.437 36.508C113.509 36.532 113.569 36.568 113.617 36.616H116.677C116.701 36.568 116.737 36.532 116.785 36.508C116.833 36.484 116.881 36.472 116.929 36.472C117.169 36.472 117.349 36.508 117.469 36.58C117.613 36.652 117.901 36.724 118.333 36.796C118.573 36.796 118.741 36.868 118.837 37.012C118.957 37.18 119.017 37.336 119.017 37.48L119.773 39.856C119.845 40.24 119.485 40.492 118.693 40.612C118.237 40.708 117.361 40.756 116.065 40.756H114.517H113.437C113.101 40.756 112.849 40.78 112.681 40.828C112.513 40.852 112.405 40.936 112.357 41.08C112.261 41.2 112.213 41.392 112.213 41.656V41.8C112.213 41.92 112.225 42.004 112.249 42.052L112.213 42.844C112.189 43.012 112.177 43.264 112.177 43.6V43.96V44.284V44.5C113.257 44.5 114.361 44.464 115.489 44.392C116.593 44.32 117.685 44.284 118.765 44.284C118.837 44.284 118.897 44.344 118.945 44.464C118.993 44.56 119.017 44.68 119.017 44.824C119.065 44.968 119.089 45.124 119.089 45.292C119.137 45.652 119.209 45.988 119.305 46.3L119.557 47.344V48.064V48.172V48.46L119.269 48.712H119.017H118.909C118.645 48.712 118.477 48.7 118.405 48.676C118.333 48.628 118.249 48.604 118.153 48.604C118.105 48.628 118.033 48.664 117.937 48.712C117.841 48.76 117.757 48.808 117.685 48.856V48.676L117.253 48.712H116.713C116.617 48.712 116.545 48.688 116.497 48.64L116.209 48.604C115.321 48.604 114.697 48.688 114.337 48.856H102.925ZM134.274 49.18L133.806 49.108H133.23C132.87 49.06 132.246 49.012 131.358 48.964C131.166 48.964 130.986 48.952 130.818 48.928C130.65 48.904 130.494 48.892 130.35 48.892H129.558L129.198 48.856C128.43 48.856 127.866 48.868 127.506 48.892C127.146 48.94 126.582 48.964 125.814 48.964H125.094L124.446 49L124.338 48.856V48.46V47.56V46.624V46.012V43.564C124.338 42.988 124.314 42.568 124.266 42.304V41.44L124.41 39.892C124.482 38.932 124.518 37.552 124.518 35.752C124.566 32.848 124.746 30.748 125.058 29.452C125.226 28.756 125.502 28.312 125.886 28.12L130.098 28.156C130.458 28.18 130.974 28.192 131.646 28.192H133.374C133.494 28.216 133.71 28.24 134.022 28.264C134.358 28.288 134.61 28.348 134.778 28.444C134.922 28.564 135.018 28.732 135.066 28.948C135.138 29.14 135.174 29.428 135.174 29.812L135.138 30.1V30.532C135.066 30.7 135.03 30.868 135.03 31.036C134.982 31.228 134.97 31.42 134.994 31.612V32.152C135.018 32.272 135.03 32.44 135.03 32.656L135.066 32.944V33.772L135.102 34.924C135.126 35.164 135.138 35.5 135.138 35.932C135.186 36.268 135.246 36.496 135.318 36.616C135.318 36.784 135.306 36.964 135.282 37.156C135.258 37.348 135.246 37.54 135.246 37.732C135.222 38.02 135.21 38.452 135.21 39.028C135.21 39.58 135.222 39.988 135.246 40.252C135.246 40.636 135.306 41.032 135.426 41.44C135.666 41.536 135.942 41.584 136.254 41.584C137.046 41.584 137.862 41.572 138.702 41.548C139.566 41.524 140.334 41.452 141.006 41.332C141.15 41.356 141.282 41.452 141.402 41.62C141.546 41.788 141.618 41.932 141.618 42.052L141.366 48.244C141.318 48.388 141.222 48.484 141.078 48.532C140.67 48.724 140.106 48.844 139.386 48.892C138.426 49.036 137.79 49.108 137.478 49.108H136.866C136.386 49.108 136.026 49.12 135.786 49.144C135.306 49.192 134.97 49.216 134.778 49.216L134.274 49.18ZM145.053 49.036C144.597 49.036 144.417 48.628 144.513 47.812C144.513 47.524 144.573 47.2 144.693 46.84C144.693 46.672 144.705 46.54 144.729 46.444C144.753 46.324 144.765 46.228 144.765 46.156C145.317 43.54 145.929 40.96 146.601 38.416L149.049 28.84C149.049 28.792 149.085 28.732 149.157 28.66C149.229 28.588 149.301 28.528 149.373 28.48H149.625C149.913 28.48 150.141 28.444 150.309 28.372C150.453 28.348 150.705 28.336 151.065 28.336C151.641 28.336 152.073 28.348 152.361 28.372C152.793 28.444 153.237 28.48 153.693 28.48L155.565 28.444C155.757 28.396 155.985 28.372 156.249 28.372L157.833 28.3H159.021C159.477 28.3 159.921 28.312 160.353 28.336H161.361C161.601 28.36 161.949 28.372 162.405 28.372H163.773C163.845 28.372 163.917 28.384 163.989 28.408C164.061 28.432 164.121 28.456 164.169 28.48C164.265 28.528 164.385 28.552 164.529 28.552H164.853C165.021 28.672 165.105 28.792 165.105 28.912L167.661 38.416C168.453 41.464 169.077 44.044 169.533 46.156C169.533 46.276 169.569 46.504 169.641 46.84C169.737 47.32 169.785 47.704 169.785 47.992C169.785 48.16 169.761 48.388 169.713 48.676C169.593 48.916 169.425 49.036 169.209 49.036H168.813C168.501 49.036 168.261 49.024 168.093 49H167.301H166.545H165.933C165.765 49 165.669 48.988 165.645 48.964H163.665L163.629 48.892C163.581 48.844 163.509 48.82 163.413 48.82L163.305 48.892C163.305 48.94 163.281 48.964 163.233 48.964H163.125H162.873C162.753 48.916 162.537 48.892 162.225 48.892C161.649 48.844 161.169 48.82 160.785 48.82C160.521 48.268 160.209 47.056 159.849 45.184C159.345 45.256 158.769 45.292 158.121 45.292H157.185H156.285C156.189 45.652 156.129 45.952 156.105 46.192C156.081 46.312 155.985 46.72 155.817 47.416C155.649 48.112 155.493 48.58 155.349 48.82L155.133 48.892C155.061 48.916 155.001 48.94 154.953 48.964C154.905 48.964 154.881 48.964 154.881 48.964H154.809C154.665 48.964 154.569 48.94 154.521 48.892C154.425 48.844 154.365 48.82 154.341 48.82L152.973 48.892H151.965C151.845 48.916 151.749 48.94 151.677 48.964C151.605 48.964 151.557 48.964 151.533 48.964H148.653H148.365C148.149 48.988 147.705 49 147.033 49H146.169C146.025 49.024 145.797 49.036 145.485 49.036H145.053ZM159.525 41.332C159.381 40.516 159.297 40.036 159.273 39.892L158.985 38.164C158.937 37.828 158.889 37.528 158.841 37.264C158.793 36.976 158.757 36.712 158.733 36.472C158.661 36.184 158.601 35.92 158.553 35.68C158.529 35.416 158.493 35.176 158.445 34.96C158.421 34.816 158.397 34.636 158.373 34.42C158.349 34.18 158.313 34.012 158.265 33.916L158.193 33.484C158.193 33.388 158.169 33.304 158.121 33.232L158.085 33.016C158.037 33.16 158.013 33.232 158.013 33.232V33.376V33.484C158.013 33.508 158.001 33.556 157.977 33.628C157.953 33.676 157.929 33.772 157.905 33.916C157.881 34.036 157.857 34.192 157.833 34.384C157.809 34.552 157.773 34.744 157.725 34.96L157.473 36.436L157.185 38.092L157.077 38.884C157.029 39.076 156.981 39.388 156.933 39.82C156.717 40.9 156.621 41.392 156.645 41.296H158.229C158.253 41.272 158.289 41.248 158.337 41.224C158.385 41.176 158.421 41.152 158.445 41.152H158.553C158.673 41.152 158.769 41.164 158.841 41.188C158.937 41.212 159.021 41.236 159.093 41.26C159.237 41.308 159.381 41.332 159.525 41.332ZM179.456 49C178.544 48.976 176.972 48.964 174.74 48.964C174.404 48.964 174.176 48.748 174.056 48.316C173.984 48.076 173.948 47.656 173.948 47.056C173.948 45.976 173.924 45.028 173.876 44.212C173.876 43.468 173.852 42.112 173.804 40.144L173.768 35.824V29.02C173.768 28.852 173.852 28.672 174.02 28.48C174.212 28.288 174.392 28.192 174.56 28.192L176.648 28.228C176.984 28.252 177.476 28.264 178.124 28.264C178.82 28.288 179.684 28.3 180.716 28.3C182.252 28.3 183.452 28.288 184.316 28.264C185.156 28.216 186.56 28.192 188.528 28.192C189.872 28.192 191.108 28.432 192.236 28.912C193.652 29.512 194.78 30.448 195.62 31.72C196.58 33.208 197.06 35.14 197.06 37.516C197.06 39.652 196.82 41.44 196.34 42.88C195.884 44.32 195.14 45.484 194.108 46.372C193.052 47.284 191.66 47.956 189.932 48.388C188.228 48.796 186.092 49 183.524 49H179.456ZM183.776 44.932C184.304 44.932 184.652 44.908 184.82 44.86C184.988 44.812 185.108 44.752 185.18 44.68C185.54 44.32 185.876 43.252 186.188 41.476C186.452 39.82 186.584 38.272 186.584 36.832V36.256C186.584 35.416 186.524 34.612 186.404 33.844C186.308 32.908 186.116 32.14 185.828 31.54C185.66 31.276 185.444 31.144 185.18 31.144C184.964 31.144 184.7 31.204 184.388 31.324L184.136 31.432C184.136 31.984 184.112 33.22 184.064 35.14L184.028 37.372C184.028 37.852 184.016 38.224 183.992 38.488L183.956 39.604L183.776 44.932ZM211.423 49.9C211.231 49.9 210.967 49.876 210.631 49.828C210.463 49.78 210.199 49.756 209.839 49.756C208.927 49.756 207.799 49.552 206.455 49.144H206.203C206.035 49.144 205.855 49.096 205.663 49C205.615 48.952 205.555 48.916 205.483 48.892C205.411 48.844 205.327 48.784 205.231 48.712L204.475 48.28C203.755 47.872 203.119 47.308 202.567 46.588C202.015 45.844 201.571 45.028 201.235 44.14C200.587 42.508 200.263 40.84 200.263 39.136C200.263 37.24 200.647 35.416 201.415 33.664C202.231 31.816 203.323 30.352 204.691 29.272C206.203 28.072 207.883 27.472 209.731 27.472C210.307 27.472 210.751 27.496 211.063 27.544C211.063 27.496 211.099 27.472 211.171 27.472H211.279C212.959 27.472 214.459 27.532 215.779 27.652C216.907 27.82 217.951 28.168 218.911 28.696C220.831 29.968 222.211 31.36 223.051 32.872C223.939 34.552 224.383 36.532 224.383 38.812C224.383 41.092 223.843 43.228 222.763 45.22L222.403 45.796C222.307 45.94 222.247 46.012 222.223 46.012L222.115 46.192L221.863 46.336C220.831 47.872 219.271 48.916 217.183 49.468C215.791 49.756 213.871 49.9 211.423 49.9ZM212.035 47.2C212.251 47.2 212.419 47.068 212.539 46.804C212.827 46.372 213.067 45.532 213.259 44.284C213.283 44.068 213.343 43.588 213.439 42.844C213.535 42.1 213.595 41.404 213.619 40.756C213.715 39.124 213.763 38.116 213.763 37.732V36.904V36.616C213.763 35.752 213.727 35.008 213.655 34.384C213.583 33.4 213.439 32.62 213.223 32.044C213.007 31.756 212.839 31.612 212.719 31.612C212.479 31.612 212.251 31.792 212.035 32.152C211.819 32.512 211.651 33.172 211.531 34.132L210.775 39.892V40.612V41.08C210.847 42.088 210.883 42.748 210.883 43.06L210.955 43.924L211.063 45.076C211.063 45.268 211.087 45.436 211.135 45.58L211.531 46.912C211.555 47.008 211.615 47.08 211.711 47.128C211.831 47.176 211.939 47.2 212.035 47.2ZM232.155 49.72L231.327 49.576C230.535 49.456 229.875 49.312 229.347 49.144C229.059 49.12 228.807 49.036 228.591 48.892C228.399 48.82 228.279 48.724 228.231 48.604L227.439 44.14V43.96C227.439 43.792 227.451 43.672 227.475 43.6C227.523 43.504 227.607 43.444 227.727 43.42C229.287 44.02 230.823 44.32 232.335 44.32C232.815 44.32 233.187 44.332 233.451 44.356C234.363 44.356 235.023 44.236 235.431 43.996C235.647 43.852 235.755 43.648 235.755 43.384C235.755 43 235.635 42.688 235.395 42.448C235.155 42.184 234.807 41.956 234.351 41.764L233.199 41.332C232.863 41.26 232.479 41.128 232.047 40.936C232.047 40.912 232.035 40.9 232.011 40.9C231.987 40.876 231.963 40.84 231.939 40.792C231.843 40.768 231.639 40.648 231.327 40.432L231.111 40.324C231.159 40.324 231.183 40.312 231.183 40.288C231.183 40.264 231.147 40.24 231.075 40.216C231.003 40.168 230.859 40.096 230.643 40C230.451 39.88 230.283 39.748 230.139 39.604C229.923 39.484 229.815 39.34 229.815 39.172V38.992C229.215 38.992 228.699 38.368 228.267 37.12C227.907 35.848 227.727 34.948 227.727 34.42C227.727 32.188 228.687 30.472 230.607 29.272C232.167 28.288 234.315 27.628 237.051 27.292C238.827 27.1 241.035 27.004 243.675 27.004C244.011 27.124 244.275 27.196 244.467 27.22C244.899 27.244 245.187 27.388 245.331 27.652C245.403 27.772 245.463 28.012 245.511 28.372C245.583 28.756 245.655 29.872 245.727 31.72C245.775 31.768 245.799 31.84 245.799 31.936C245.799 32.128 245.535 32.284 245.007 32.404C244.431 32.476 244.059 32.512 243.891 32.512L243.063 32.62C242.127 32.74 241.515 32.824 241.227 32.872C240.243 33.04 239.559 33.34 239.175 33.772C238.935 34.06 238.815 34.36 238.815 34.672C238.815 34.84 238.839 34.972 238.887 35.068C238.935 35.164 239.055 35.272 239.247 35.392C239.463 35.512 240.087 35.812 241.119 36.292C242.223 36.772 243.327 37.396 244.431 38.164C245.367 38.812 246.039 39.676 246.447 40.756C246.663 41.212 246.771 41.812 246.771 42.556C246.771 43.228 246.687 43.804 246.519 44.284C245.895 45.868 244.719 47.164 242.991 48.172C242.175 48.652 241.323 49.024 240.435 49.288C239.547 49.576 238.695 49.72 237.879 49.72L232.587 49.828L232.155 49.72Z" fill="black"/>
<path d="M26 21C26 15.4772 30.4772 11 36 11C41.5228 11 46 15.4772 46 21" stroke="black" stroke-width="2" stroke-miterlimit="10" stroke-linecap="round" stroke-linejoin="round"/>
<path d="M36.0657 26.5031C37.7119 23.2387 41.0947 21 45 21C50.5225 21 55 25.4766 55 31C55 34.1787 53.5171 37.0107 51.2054 38.8423" stroke="black" stroke-width="2" stroke-miterlimit="10" stroke-linecap="round" stroke-linejoin="round"/>
<path d="M20.6391 38.7165C18.4166 36.8823 17 34.1066 17 31C17 25.4772 21.4772 21 27 21C32.5228 21 37 25.4772 37 31C37 34.1784 35.5172 37.0105 33.2055 38.8421" stroke="black" stroke-width="2" stroke-miterlimit="10" stroke-linecap="round" stroke-linejoin="round"/>
<path d="M33 60V54C33 51.2383 30.7607 49 28 49H24H21C18.2393 49 16 46.7617 16 44V41C16 39.8955 16.8955 39 18 39H54C55.1045 39 56 39.8955 56 41V44C56 46.7617 53.7607 49 51 49H48H44C41.2393 49 39 51.2383 39 54V60" stroke="black" stroke-width="1.9467" stroke-miterlimit="10" stroke-linecap="round" stroke-linejoin="round"/>
<path d="M29 60H43" stroke="black" stroke-width="1.9467" stroke-miterlimit="10" stroke-linecap="round" stroke-linejoin="round"/>
<g clip-path="url(#clip0_2036_277)">
<path d="M258.931 66.4137C258.683 66.3242 258.522 66.0855 258.528 65.8239L259.185 39.2514C256.7 37.7725 255.766 35.3568 256.74 32.6601C257.399 30.8357 258.941 29.3141 260.978 29.0056C260.888 27.4329 261.116 25.8772 261.659 24.3739C263.852 18.2998 270.577 15.1427 276.651 17.3359C282.725 19.5291 285.884 26.2551 283.691 32.3292C283.149 33.8309 282.329 35.1748 281.254 36.327C282.622 37.8647 282.839 40.0214 282.18 41.8458C281.151 44.6943 278.375 45.821 276.038 45.4177L259.617 66.2174C259.454 66.4239 259.178 66.5031 258.931 66.4137ZM260.393 39.8465L259.795 64.0189L274.774 45.0463L260.752 39.9833C260.631 39.9395 260.51 39.8924 260.393 39.8465ZM263.746 29.317C264.064 29.4318 264.228 29.7819 264.113 30.0998C263.998 30.4177 263.648 30.5821 263.33 30.4673C260.597 29.4803 258.593 31.128 257.89 33.077C256.975 35.6108 258.2 37.7634 261.167 38.8346L275.588 44.0418C277.502 44.7329 280.125 43.9317 281.027 41.4315C281.731 39.4825 281.244 36.9355 278.51 35.9485L272.438 33.7559C272.12 33.6411 271.956 33.291 272.071 32.9731C272.185 32.6552 272.535 32.4908 272.853 32.6056L278.926 34.7982C279.459 34.9909 279.929 35.2346 280.337 35.5171C281.311 34.4801 282.049 33.2696 282.539 31.9133C284.503 26.4735 281.676 20.4503 276.236 18.4861C270.796 16.522 264.773 19.351 262.809 24.7892C262.319 26.1455 262.116 27.5493 262.203 28.9693C262.696 29.0122 263.214 29.1249 263.746 29.317Z" fill="black"/>
</g>
<defs>
<clipPath id="clip0_2036_277">
<rect width="54.3532" height="54.3532" fill="white" transform="translate(251.459 7.08387) rotate(19.8534)"/>
</clipPath>
</defs>
</svg>
