<svg width="251" height="32" viewBox="0 0 251 32" fill="none" xmlns="http://www.w3.org/2000/svg">
<path d="M73.4777 14.98C73.2511 14.98 73.1044 14.8333 73.0377 14.54C72.9711 14.3933 72.9377 14.1267 72.9377 13.74C72.9377 12.58 72.9244 11.5467 72.8977 10.64C72.8577 9.33333 72.8377 7.95333 72.8377 6.5V2.1C72.8377 1.98 72.8911 1.86667 72.9977 1.76C73.1177 1.64 73.2377 1.58 73.3577 1.58L75.6577 1.6C76.0844 1.61333 76.6444 1.62 77.3377 1.62C78.3377 1.62 79.1111 1.61333 79.6577 1.6L80.3977 1.58C81.1977 1.55333 81.8577 1.54 82.3777 1.54C83.2177 1.54 84.0177 1.66 84.7777 1.9C85.6711 2.16667 86.3977 2.62667 86.9577 3.28C87.5844 3.98667 87.8977 4.94 87.8977 6.14C87.8977 8.16667 87.3844 9.63333 86.3577 10.54C85.4511 11.3933 84.0977 11.82 82.2977 11.82H79.5577C79.5711 12.1267 79.5777 12.4533 79.5777 12.8C79.5777 12.92 79.5711 13.0667 79.5577 13.24C79.5577 13.4 79.5577 13.62 79.5577 13.9C79.5577 14.34 79.4644 14.62 79.2777 14.74C79.1311 14.86 78.8577 14.92 78.4577 14.92C77.8711 14.92 77.4644 14.9267 77.2377 14.94C76.3177 14.94 75.5844 14.9533 75.0377 14.98H73.4777ZM80.6377 9.42C80.9177 9.42 81.1244 9.15333 81.2577 8.62C81.3644 8.26 81.4444 7.72667 81.4977 7.02C81.5244 6.63333 81.5377 6.2 81.5377 5.72V5.5C81.5377 5.28667 81.5044 4.96667 81.4377 4.54C81.3844 4.3 81.3244 4.11333 81.2577 3.98C81.1911 3.83333 81.1044 3.71333 80.9977 3.62C80.8911 3.5 80.7711 3.44 80.6377 3.44C80.5711 3.44 80.5111 3.46667 80.4577 3.52C80.4177 3.57333 80.3777 3.64 80.3377 3.72C80.1911 3.96 80.0577 4.49333 79.9377 5.32C79.8977 5.56 79.8644 5.92 79.8377 6.4C79.7711 7.13333 79.7377 8.11333 79.7377 9.34C79.7377 9.34 79.7444 9.34667 79.7577 9.36C79.7711 9.37333 79.7977 9.38667 79.8377 9.4L80.0777 9.42H80.6377ZM95.1351 15.1L94.8751 15.06H94.5551C94.3551 15.0333 94.0084 15.0067 93.5151 14.98C93.4084 14.98 93.3084 14.9733 93.2151 14.96C93.1217 14.9467 93.0351 14.94 92.9551 14.94H92.5151L92.3151 14.92C91.8884 14.92 91.5751 14.9267 91.3751 14.94C91.1751 14.9667 90.8617 14.98 90.4351 14.98H90.0351L89.6751 15L89.6151 14.92V14.7V14.2V13.68V13.34V11.98C89.6151 11.66 89.6017 11.4267 89.5751 11.28V10.8L89.6551 9.94C89.6951 9.40667 89.7151 8.64 89.7151 7.64C89.7417 6.02667 89.8417 4.86 90.0151 4.14C90.1084 3.75333 90.2617 3.50667 90.4751 3.4L92.8151 3.42C93.0151 3.43333 93.3017 3.44 93.6751 3.44H94.6351C94.7017 3.45333 94.8217 3.46667 94.9951 3.48C95.1817 3.49333 95.3217 3.52667 95.4151 3.58C95.4951 3.64667 95.5484 3.74 95.5751 3.86C95.6151 3.96667 95.6351 4.12667 95.6351 4.34L95.6151 4.5V4.74C95.5751 4.83333 95.5551 4.92667 95.5551 5.02C95.5284 5.12667 95.5217 5.23333 95.5351 5.34V5.64C95.5484 5.70667 95.5551 5.8 95.5551 5.92L95.5751 6.08V6.54L95.5951 7.18C95.6084 7.31333 95.6151 7.5 95.6151 7.74C95.6417 7.92667 95.6751 8.05333 95.7151 8.12C95.7151 8.21333 95.7084 8.31333 95.6951 8.42C95.6817 8.52667 95.6751 8.63333 95.6751 8.74C95.6617 8.9 95.6551 9.14 95.6551 9.46C95.6551 9.76667 95.6617 9.99333 95.6751 10.14C95.6751 10.3533 95.7084 10.5733 95.7751 10.8C95.9084 10.8533 96.0617 10.88 96.2351 10.88C96.6751 10.88 97.1284 10.8733 97.5951 10.86C98.0751 10.8467 98.5017 10.8067 98.8751 10.74C98.9551 10.7533 99.0284 10.8067 99.0951 10.9C99.1751 10.9933 99.2151 11.0733 99.2151 11.14L99.0751 14.58C99.0484 14.66 98.9951 14.7133 98.9151 14.74C98.6884 14.8467 98.3751 14.9133 97.9751 14.94C97.4417 15.02 97.0884 15.06 96.9151 15.06H96.5751C96.3084 15.06 96.1084 15.0667 95.9751 15.08C95.7084 15.1067 95.5217 15.12 95.4151 15.12L95.1351 15.1ZM101.124 15.02C100.87 15.02 100.77 14.7933 100.824 14.34C100.824 14.18 100.857 14 100.924 13.8C100.924 13.7067 100.93 13.6333 100.944 13.58C100.957 13.5133 100.964 13.46 100.964 13.42C101.27 11.9667 101.61 10.5333 101.984 9.12L103.344 3.8C103.344 3.77333 103.364 3.74 103.404 3.7C103.444 3.66 103.484 3.62667 103.524 3.6H103.664C103.824 3.6 103.95 3.58 104.044 3.54C104.124 3.52667 104.264 3.52 104.464 3.52C104.784 3.52 105.024 3.52667 105.184 3.54C105.424 3.58 105.67 3.6 105.924 3.6L106.964 3.58C107.07 3.55333 107.197 3.54 107.344 3.54L108.224 3.5H108.884C109.137 3.5 109.384 3.50667 109.624 3.52H110.184C110.317 3.53333 110.51 3.54 110.764 3.54H111.524C111.564 3.54 111.604 3.54667 111.644 3.56C111.684 3.57333 111.717 3.58667 111.744 3.6C111.797 3.62667 111.864 3.64 111.944 3.64H112.124C112.217 3.70667 112.264 3.77333 112.264 3.84L113.684 9.12C114.124 10.8133 114.47 12.2467 114.724 13.42C114.724 13.4867 114.744 13.6133 114.784 13.8C114.837 14.0667 114.864 14.28 114.864 14.44C114.864 14.5333 114.85 14.66 114.824 14.82C114.757 14.9533 114.664 15.02 114.544 15.02H114.324C114.15 15.02 114.017 15.0133 113.924 15H113.484H113.064H112.724C112.63 15 112.577 14.9933 112.564 14.98H111.464L111.444 14.94C111.417 14.9133 111.377 14.9 111.324 14.9L111.264 14.94C111.264 14.9667 111.25 14.98 111.224 14.98H111.164H111.024C110.957 14.9533 110.837 14.94 110.664 14.94C110.344 14.9133 110.077 14.9 109.864 14.9C109.717 14.5933 109.544 13.92 109.344 12.88C109.064 12.92 108.744 12.94 108.384 12.94H107.864H107.364C107.31 13.14 107.277 13.3067 107.264 13.44C107.25 13.5067 107.197 13.7333 107.104 14.12C107.01 14.5067 106.924 14.7667 106.844 14.9L106.724 14.94C106.684 14.9533 106.65 14.9667 106.624 14.98C106.597 14.98 106.584 14.98 106.584 14.98H106.544C106.464 14.98 106.41 14.9667 106.384 14.94C106.33 14.9133 106.297 14.9 106.284 14.9L105.524 14.94H104.964C104.897 14.9533 104.844 14.9667 104.804 14.98C104.764 14.98 104.737 14.98 104.724 14.98H103.124H102.964C102.844 14.9933 102.597 15 102.224 15H101.744C101.664 15.0133 101.537 15.02 101.364 15.02H101.124ZM109.164 10.74C109.084 10.2867 109.037 10.02 109.024 9.94L108.864 8.98C108.837 8.79333 108.81 8.62667 108.784 8.48C108.757 8.32 108.737 8.17333 108.724 8.04C108.684 7.88 108.65 7.73333 108.624 7.6C108.61 7.45333 108.59 7.32 108.564 7.2C108.55 7.12 108.537 7.02 108.524 6.9C108.51 6.76667 108.49 6.67333 108.464 6.62L108.424 6.38C108.424 6.32667 108.41 6.28 108.384 6.24L108.364 6.12C108.337 6.2 108.324 6.24 108.324 6.24V6.32V6.38C108.324 6.39333 108.317 6.42 108.304 6.46C108.29 6.48667 108.277 6.54 108.264 6.62C108.25 6.68667 108.237 6.77333 108.224 6.88C108.21 6.97333 108.19 7.08 108.164 7.2L108.024 8.02L107.864 8.94L107.804 9.38C107.777 9.48667 107.75 9.66 107.724 9.9C107.604 10.5 107.55 10.7733 107.564 10.72H108.444C108.457 10.7067 108.477 10.6933 108.504 10.68C108.53 10.6533 108.55 10.64 108.564 10.64H108.624C108.69 10.64 108.744 10.6467 108.784 10.66C108.837 10.6733 108.884 10.6867 108.924 10.7C109.004 10.7267 109.084 10.74 109.164 10.74ZM122.896 15.06H121.976H120.936H119.616C119.496 14.8733 119.416 14.5333 119.376 14.04C119.323 13.6 119.296 12.96 119.296 12.12L119.316 9.92C119.329 9.38667 119.336 8.54 119.336 7.38L119.276 7.32H117.296C117.003 7.32 116.809 6.98667 116.716 6.32C116.663 5.96 116.636 5.43333 116.636 4.74V4.48C116.663 4.38667 116.676 4.24 116.676 4.04V3.64L116.696 3.48L116.776 3.4L117.136 3.42H117.536C118.123 3.42 118.569 3.41333 118.876 3.4H120.176H120.536H121.216H122.076H122.936C123.109 3.41333 123.356 3.42 123.676 3.42H124.176C124.229 3.39333 124.316 3.38 124.436 3.38C124.529 3.35333 124.616 3.34 124.696 3.34C124.949 3.34 125.143 3.35333 125.276 3.38C125.543 3.40667 125.743 3.42 125.876 3.42L126.396 3.4H127.176C127.576 3.4 127.849 3.40667 127.996 3.42L128.276 3.44C128.289 3.45333 128.309 3.47333 128.336 3.5C128.363 3.51333 128.376 3.52667 128.376 3.54V6.94C128.376 7.02 128.329 7.10667 128.236 7.2C128.156 7.29333 128.076 7.35333 127.996 7.38C127.556 7.28667 126.983 7.24 126.276 7.24H125.516C125.316 7.24 125.183 7.49333 125.116 8C125.089 8.14667 125.076 8.36 125.076 8.64V9.24C125.076 9.50667 125.083 9.70667 125.096 9.84V10.4C125.096 10.9467 125.069 11.4533 125.016 11.92C124.989 12.2667 124.976 12.52 124.976 12.68C124.949 12.84 124.936 13.06 124.936 13.34C124.936 13.74 124.923 14.0733 124.896 14.34C124.883 14.7533 124.729 14.9733 124.436 15C124.116 15.04 123.929 15.06 123.876 15.06H122.896ZM130.902 15.26C130.662 15.26 130.509 15.02 130.442 14.54C130.402 14.34 130.382 14.16 130.382 14C130.382 13.7867 130.376 13.6533 130.362 13.6C130.349 13.2133 130.316 12.6 130.262 11.76L130.202 11C130.122 9.82667 130.082 8.96 130.082 8.4V3.54C130.082 3.43333 130.202 3.35333 130.442 3.3C130.576 3.26 130.762 3.24 131.002 3.24C131.162 3.24 131.336 3.25333 131.522 3.28C131.709 3.29333 131.849 3.3 131.942 3.3C132.142 3.32667 132.456 3.34 132.882 3.34L132.962 3.28H133.842C133.882 3.32 133.929 3.34 133.982 3.34H134.062C134.076 3.32667 134.109 3.32 134.162 3.32C134.189 3.30667 134.229 3.3 134.282 3.3C134.296 3.28667 134.309 3.28 134.322 3.28C134.336 3.28 134.342 3.28 134.342 3.28C134.382 3.28 134.429 3.29333 134.482 3.32C134.536 3.33333 134.576 3.34 134.602 3.34H136.082L136.142 6.78C136.142 6.79333 136.129 6.84 136.102 6.92C136.089 6.98667 136.076 7.08 136.062 7.2C136.022 7.68 136.002 8.06 136.002 8.34V12.24L135.942 13C135.902 13.3333 135.889 13.6067 135.902 13.82C135.902 14.1 135.889 14.3267 135.862 14.5C135.849 14.66 135.809 14.7867 135.742 14.88C135.662 14.9733 135.536 15.02 135.362 15.02L135.342 15L135.282 14.98C135.256 14.98 135.242 14.9867 135.242 15H135.142C135.062 15.0267 135.016 15.0467 135.002 15.06C134.936 15.06 134.782 15.04 134.542 15L134.262 14.98C134.196 14.98 134.156 15.0067 134.142 15.06H132.642H132.362L131.842 15.16L131.362 15.22L130.902 15.26ZM143.885 15.1L143.625 15.06H143.305C143.105 15.0333 142.758 15.0067 142.265 14.98C142.158 14.98 142.058 14.9733 141.965 14.96C141.872 14.9467 141.785 14.94 141.705 14.94H141.265L141.065 14.92C140.638 14.92 140.325 14.9267 140.125 14.94C139.925 14.9667 139.612 14.98 139.185 14.98H138.785L138.425 15L138.365 14.92V14.7V14.2V13.68V13.34V11.98C138.365 11.66 138.352 11.4267 138.325 11.28V10.8L138.405 9.94C138.445 9.40667 138.465 8.64 138.465 7.64C138.492 6.02667 138.592 4.86 138.765 4.14C138.858 3.75333 139.012 3.50667 139.225 3.4L141.565 3.42C141.765 3.43333 142.052 3.44 142.425 3.44H143.385C143.452 3.45333 143.572 3.46667 143.745 3.48C143.932 3.49333 144.072 3.52667 144.165 3.58C144.245 3.64667 144.298 3.74 144.325 3.86C144.365 3.96667 144.385 4.12667 144.385 4.34L144.365 4.5V4.74C144.325 4.83333 144.305 4.92667 144.305 5.02C144.278 5.12667 144.272 5.23333 144.285 5.34V5.64C144.298 5.70667 144.305 5.8 144.305 5.92L144.325 6.08V6.54L144.345 7.18C144.358 7.31333 144.365 7.5 144.365 7.74C144.392 7.92667 144.425 8.05333 144.465 8.12C144.465 8.21333 144.458 8.31333 144.445 8.42C144.432 8.52667 144.425 8.63333 144.425 8.74C144.412 8.9 144.405 9.14 144.405 9.46C144.405 9.76667 144.412 9.99333 144.425 10.14C144.425 10.3533 144.458 10.5733 144.525 10.8C144.658 10.8533 144.812 10.88 144.985 10.88C145.425 10.88 145.878 10.8733 146.345 10.86C146.825 10.8467 147.252 10.8067 147.625 10.74C147.705 10.7533 147.778 10.8067 147.845 10.9C147.925 10.9933 147.965 11.0733 147.965 11.14L147.825 14.58C147.798 14.66 147.745 14.7133 147.665 14.74C147.438 14.8467 147.125 14.9133 146.725 14.94C146.192 15.02 145.838 15.06 145.665 15.06H145.325C145.058 15.06 144.858 15.0667 144.725 15.08C144.458 15.1067 144.272 15.12 144.165 15.12L143.885 15.1ZM155.194 15.1L154.934 15.06H154.614C154.414 15.0333 154.067 15.0067 153.574 14.98C153.467 14.98 153.367 14.9733 153.274 14.96C153.18 14.9467 153.094 14.94 153.014 14.94H152.574L152.374 14.92C151.947 14.92 151.634 14.9267 151.434 14.94C151.234 14.9667 150.92 14.98 150.494 14.98H150.094L149.734 15L149.674 14.92V14.7V14.2V13.68V13.34V11.98C149.674 11.66 149.66 11.4267 149.634 11.28V10.8L149.714 9.94C149.754 9.40667 149.774 8.64 149.774 7.64C149.8 6.02667 149.9 4.86 150.074 4.14C150.167 3.75333 150.32 3.50667 150.534 3.4L152.874 3.42C153.074 3.43333 153.36 3.44 153.734 3.44H154.694C154.76 3.45333 154.88 3.46667 155.054 3.48C155.24 3.49333 155.38 3.52667 155.474 3.58C155.554 3.64667 155.607 3.74 155.634 3.86C155.674 3.96667 155.694 4.12667 155.694 4.34L155.674 4.5V4.74C155.634 4.83333 155.614 4.92667 155.614 5.02C155.587 5.12667 155.58 5.23333 155.594 5.34V5.64C155.607 5.70667 155.614 5.8 155.614 5.92L155.634 6.08V6.54L155.654 7.18C155.667 7.31333 155.674 7.5 155.674 7.74C155.7 7.92667 155.734 8.05333 155.774 8.12C155.774 8.21333 155.767 8.31333 155.754 8.42C155.74 8.52667 155.734 8.63333 155.734 8.74C155.72 8.9 155.714 9.14 155.714 9.46C155.714 9.76667 155.72 9.99333 155.734 10.14C155.734 10.3533 155.767 10.5733 155.834 10.8C155.967 10.8533 156.12 10.88 156.294 10.88C156.734 10.88 157.187 10.8733 157.654 10.86C158.134 10.8467 158.56 10.8067 158.934 10.74C159.014 10.7533 159.087 10.8067 159.154 10.9C159.234 10.9933 159.274 11.0733 159.274 11.14L159.134 14.58C159.107 14.66 159.054 14.7133 158.974 14.74C158.747 14.8467 158.434 14.9133 158.034 14.94C157.5 15.02 157.147 15.06 156.974 15.06H156.634C156.367 15.06 156.167 15.0667 156.034 15.08C155.767 15.1067 155.58 15.12 155.474 15.12L155.194 15.1ZM166.882 15.5C166.776 15.5 166.629 15.4867 166.442 15.46C166.349 15.4333 166.202 15.42 166.002 15.42C165.496 15.42 164.869 15.3067 164.122 15.08H163.982C163.889 15.08 163.789 15.0533 163.682 15C163.656 14.9733 163.622 14.9533 163.582 14.94C163.542 14.9133 163.496 14.88 163.442 14.84L163.022 14.6C162.622 14.3733 162.269 14.06 161.962 13.66C161.656 13.2467 161.409 12.7933 161.222 12.3C160.862 11.3933 160.682 10.4667 160.682 9.52C160.682 8.46667 160.896 7.45333 161.322 6.48C161.776 5.45333 162.382 4.64 163.142 4.04C163.982 3.37333 164.916 3.04 165.942 3.04C166.262 3.04 166.509 3.05333 166.682 3.08C166.682 3.05333 166.702 3.04 166.742 3.04H166.802C167.736 3.04 168.569 3.07333 169.302 3.14C169.929 3.23333 170.509 3.42667 171.042 3.72C172.109 4.42667 172.876 5.2 173.342 6.04C173.836 6.97333 174.082 8.07333 174.082 9.34C174.082 10.6067 173.782 11.7933 173.182 12.9L172.982 13.22C172.929 13.3 172.896 13.34 172.882 13.34L172.822 13.44L172.682 13.52C172.109 14.3733 171.242 14.9533 170.082 15.26C169.309 15.42 168.242 15.5 166.882 15.5ZM167.222 14C167.342 14 167.436 13.9267 167.502 13.78C167.662 13.54 167.796 13.0733 167.902 12.38C167.916 12.26 167.949 11.9933 168.002 11.58C168.056 11.1667 168.089 10.78 168.102 10.42C168.156 9.51333 168.182 8.95333 168.182 8.74V8.28V8.12C168.182 7.64 168.162 7.22667 168.122 6.88C168.082 6.33333 168.002 5.9 167.882 5.58C167.762 5.42 167.669 5.34 167.602 5.34C167.469 5.34 167.342 5.44 167.222 5.64C167.102 5.84 167.009 6.20667 166.942 6.74L166.522 9.94V10.34V10.6C166.562 11.16 166.582 11.5267 166.582 11.7L166.622 12.18L166.682 12.82C166.682 12.9267 166.696 13.02 166.722 13.1L166.942 13.84C166.956 13.8933 166.989 13.9333 167.042 13.96C167.109 13.9867 167.169 14 167.222 14ZM178.4 15.4L177.94 15.32C177.5 15.2533 177.133 15.1733 176.84 15.08C176.68 15.0667 176.54 15.02 176.42 14.94C176.313 14.9 176.247 14.8467 176.22 14.78L175.78 12.3V12.2C175.78 12.1067 175.787 12.04 175.8 12C175.827 11.9467 175.873 11.9133 175.94 11.9C176.807 12.2333 177.66 12.4 178.5 12.4C178.767 12.4 178.973 12.4067 179.12 12.42C179.627 12.42 179.993 12.3533 180.22 12.22C180.34 12.14 180.4 12.0267 180.4 11.88C180.4 11.6667 180.333 11.4933 180.2 11.36C180.067 11.2133 179.873 11.0867 179.62 10.98L178.98 10.74C178.793 10.7 178.58 10.6267 178.34 10.52C178.34 10.5067 178.333 10.5 178.32 10.5C178.307 10.4867 178.293 10.4667 178.28 10.44C178.227 10.4267 178.113 10.36 177.94 10.24L177.82 10.18C177.847 10.18 177.86 10.1733 177.86 10.16C177.86 10.1467 177.84 10.1333 177.8 10.12C177.76 10.0933 177.68 10.0533 177.56 10C177.453 9.93333 177.36 9.86 177.28 9.78C177.16 9.71333 177.1 9.63333 177.1 9.54V9.44C176.767 9.44 176.48 9.09333 176.24 8.4C176.04 7.69333 175.94 7.19333 175.94 6.9C175.94 5.66 176.473 4.70667 177.54 4.04C178.407 3.49333 179.6 3.12667 181.12 2.94C182.107 2.83333 183.333 2.78 184.8 2.78C184.987 2.84667 185.133 2.88667 185.24 2.9C185.48 2.91333 185.64 2.99333 185.72 3.14C185.76 3.20667 185.793 3.34 185.82 3.54C185.86 3.75333 185.9 4.37333 185.94 5.4C185.967 5.42667 185.98 5.46667 185.98 5.52C185.98 5.62667 185.833 5.71333 185.54 5.78C185.22 5.82 185.013 5.84 184.92 5.84L184.46 5.9C183.94 5.96667 183.6 6.01333 183.44 6.04C182.893 6.13333 182.513 6.3 182.3 6.54C182.167 6.7 182.1 6.86667 182.1 7.04C182.1 7.13333 182.113 7.20667 182.14 7.26C182.167 7.31333 182.233 7.37333 182.34 7.44C182.46 7.50667 182.807 7.67333 183.38 7.94C183.993 8.20667 184.607 8.55333 185.22 8.98C185.74 9.34 186.113 9.82 186.34 10.42C186.46 10.6733 186.52 11.0067 186.52 11.42C186.52 11.7933 186.473 12.1133 186.38 12.38C186.033 13.26 185.38 13.98 184.42 14.54C183.967 14.8067 183.493 15.0133 183 15.16C182.507 15.32 182.033 15.4 181.58 15.4L178.64 15.46L178.4 15.4ZM60.8489 31.06C60.6489 31.06 60.5156 30.94 60.4489 30.7C60.4089 30.5667 60.3889 30.3267 60.3889 29.98C60.3889 28.9533 60.3756 28.06 60.3489 27.3C60.3089 26.14 60.2889 24.9333 60.2889 23.68V19.84C60.2889 19.7333 60.3356 19.6333 60.4289 19.54C60.5356 19.4467 60.6422 19.4 60.7489 19.4C61.7089 19.4 62.3756 19.4067 62.7489 19.42L64.2089 19.44C64.6089 19.44 65.2756 19.4267 66.2089 19.4C66.6889 19.3867 67.4822 19.38 68.5889 19.38C69.4022 19.38 70.1022 19.48 70.6889 19.68C71.4356 19.92 72.0689 20.3067 72.5889 20.84C73.1222 21.48 73.3889 22.3267 73.3889 23.38C73.3889 25.1133 72.9422 26.3933 72.0489 27.22C71.2356 27.9533 70.0556 28.32 68.5089 28.32H66.1289C66.1289 28.72 66.1156 28.96 66.0889 29.04C66.0889 29.1333 66.0822 29.2 66.0689 29.24C66.0556 29.28 66.0489 29.3067 66.0489 29.32C66.0489 29.36 66.0622 29.4 66.0889 29.44V29.72L66.1289 29.98V30.12C66.1289 30.48 66.0489 30.7333 65.8889 30.88C65.8222 30.9333 65.7222 30.9667 65.5889 30.98C65.4689 30.9933 65.3356 31 65.1889 31H64.1089L63.5489 31.02C62.9889 31.0467 62.5356 31.06 62.1889 31.06H60.8489ZM67.0889 26.22C67.3022 26.22 67.4756 25.9933 67.6089 25.54C67.7022 25.2333 67.7756 24.76 67.8289 24.12C67.8422 23.8 67.8489 23.4267 67.8489 23V22.82C67.8489 22.5267 67.8156 22.2467 67.7489 21.98C67.6822 21.58 67.5689 21.3133 67.4089 21.18C67.3156 21.0867 67.2089 21.04 67.0889 21.04C66.9822 21.04 66.8889 21.1067 66.8089 21.24C66.6622 21.52 66.5556 21.9867 66.4889 22.64C66.4222 23.0133 66.3889 23.3333 66.3889 23.6C66.3222 24.2133 66.2889 25.0733 66.2889 26.18C66.2889 26.18 66.2956 26.1867 66.3089 26.2C66.3356 26.2 66.3622 26.2 66.3889 26.2C66.4022 26.2133 66.4756 26.22 66.6089 26.22H67.0889ZM84.3531 31.22C83.7665 30.6467 83.2665 30.0667 82.8531 29.48C82.5598 29.0933 82.1065 28.4067 81.4931 27.42L81.1531 26.88C81.1398 26.8667 81.1265 26.86 81.1131 26.86C81.1131 26.8467 81.1131 26.84 81.1131 26.84H81.0131L80.9331 26.88C80.9198 27.0533 80.9131 27.52 80.9131 28.28C80.9131 28.7733 80.8865 29.3533 80.8331 30.02L80.8131 30.62C80.7598 30.7667 80.7265 30.84 80.7131 30.84H80.5731H80.5131C79.0465 30.9467 77.9798 31 77.3131 31H77.0131H76.6331C76.4865 31 76.3798 30.9933 76.3131 30.98H76.1731L75.5531 30.78L75.5131 30.64C75.4865 30.64 75.4665 30.6133 75.4531 30.56C75.4531 30.5067 75.4531 30.4667 75.4531 30.44C75.4131 29.88 75.3798 29.4733 75.3531 29.22C75.2998 28.5 75.2665 27.9733 75.2531 27.64C75.2265 27.32 75.2131 27.1133 75.2131 27.02L75.1131 25.92L75.0931 25.32C75.0798 25.2 75.0731 25.0333 75.0731 24.82V24.64C75.0998 24.5733 75.1131 24.4667 75.1131 24.32V23.98C75.1265 23.9267 75.1331 23.8667 75.1331 23.8L75.1131 23.64V23.44C75.1131 23.3467 75.0998 23.2733 75.0731 23.22V23.1L75.0931 22.6C75.1065 22.5067 75.1131 22.3667 75.1131 22.18C75.1398 21.78 75.1531 21.4 75.1531 21.04V20.84C75.1398 20.8 75.1331 20.7133 75.1331 20.58V20.3V20.1C75.0931 20.06 75.0731 20.02 75.0731 19.98C75.0731 19.7933 75.2398 19.66 75.5731 19.58C75.7465 19.5267 75.9931 19.5 76.3131 19.5C79.4331 19.5 81.7665 19.6067 83.3131 19.82C84.8331 20.0333 85.8998 20.4 86.5131 20.92C86.7798 21.1733 86.9665 21.4733 87.0731 21.82C87.1931 22.1533 87.2531 22.5533 87.2531 23.02C87.2531 23.7667 87.0398 24.3933 86.6131 24.9C86.3331 25.18 86.0065 25.4133 85.6331 25.6C85.7131 25.8 85.9465 26.2 86.3331 26.8C86.4131 26.8933 86.4865 26.9933 86.5531 27.1C86.6331 27.2067 86.7265 27.32 86.8331 27.44C87.0865 27.7867 87.3798 28.1667 87.7131 28.58C87.7265 28.6333 87.7798 28.7467 87.8731 28.92C87.9398 28.9467 87.9731 28.98 87.9731 29.02C87.9865 29.0467 87.9798 29.0867 87.9531 29.14C87.8465 29.3 87.5331 29.5333 87.0131 29.84C86.9465 29.9067 86.8665 29.9733 86.7731 30.04C86.5065 30.2533 86.1398 30.4733 85.6731 30.7C85.2465 30.9267 84.8798 31.0867 84.5731 31.18C84.4531 31.2467 84.3798 31.26 84.3531 31.22ZM80.7131 24.18C80.8865 24.18 81.1198 24.1467 81.4131 24.08C81.6931 24 81.8931 23.92 82.0131 23.84C82.2131 23.72 82.3865 23.5867 82.5331 23.44C82.6798 23.2667 82.7531 23.0667 82.7531 22.84C82.7531 22.4667 82.6398 22.1667 82.4131 21.94C82.2131 21.78 81.9665 21.7 81.6731 21.7H80.8131C80.8131 21.8733 80.7998 22.1467 80.7731 22.52L80.7531 22.94C80.7265 23.2067 80.7131 23.62 80.7131 24.18ZM90.8731 31.26C90.6331 31.26 90.4798 31.02 90.4131 30.54C90.3731 30.34 90.3531 30.16 90.3531 30C90.3531 29.7867 90.3465 29.6533 90.3331 29.6C90.3198 29.2133 90.2865 28.6 90.2331 27.76L90.1731 27C90.0931 25.8267 90.0531 24.96 90.0531 24.4V19.54C90.0531 19.4333 90.1731 19.3533 90.4131 19.3C90.5465 19.26 90.7331 19.24 90.9731 19.24C91.1331 19.24 91.3065 19.2533 91.4931 19.28C91.6798 19.2933 91.8198 19.3 91.9131 19.3C92.1131 19.3267 92.4265 19.34 92.8531 19.34L92.9331 19.28H93.8131C93.8531 19.32 93.8998 19.34 93.9531 19.34H94.0331C94.0465 19.3267 94.0798 19.32 94.1331 19.32C94.1598 19.3067 94.1998 19.3 94.2531 19.3C94.2665 19.2867 94.2798 19.28 94.2931 19.28C94.3065 19.28 94.3131 19.28 94.3131 19.28C94.3531 19.28 94.3998 19.2933 94.4531 19.32C94.5065 19.3333 94.5465 19.34 94.5731 19.34H96.0531L96.1131 22.78C96.1131 22.7933 96.0998 22.84 96.0731 22.92C96.0598 22.9867 96.0465 23.08 96.0331 23.2C95.9931 23.68 95.9731 24.06 95.9731 24.34V28.24L95.9131 29C95.8731 29.3333 95.8598 29.6067 95.8731 29.82C95.8731 30.1 95.8598 30.3267 95.8331 30.5C95.8198 30.66 95.7798 30.7867 95.7131 30.88C95.6331 30.9733 95.5065 31.02 95.3331 31.02L95.3131 31L95.2531 30.98C95.2265 30.98 95.2131 30.9867 95.2131 31H95.1131C95.0331 31.0267 94.9865 31.0467 94.9731 31.06C94.9065 31.06 94.7531 31.04 94.5131 31L94.2331 30.98C94.1665 30.98 94.1265 31.0067 94.1131 31.06H92.6131H92.3331L91.8131 31.16L91.3331 31.22L90.8731 31.26ZM100.156 31.06H99.8358H99.5358H99.3758L98.5958 30.84L98.5558 30.72C98.5424 30.72 98.5358 30.6533 98.5358 30.52C98.5358 30.3467 98.5291 30.2067 98.5158 30.1L98.4958 29.34C98.4824 29.18 98.4758 28.9267 98.4758 28.58C98.4758 28.2467 98.4691 28 98.4558 27.84V27.24C98.3758 26.4 98.3358 25.5333 98.3358 24.64V24.48V24.18C98.3358 24.02 98.3424 23.9067 98.3558 23.84V23.68V23.54C98.3424 23.5 98.3358 23.4333 98.3358 23.34V23.12V23V22.8V22.48C98.3358 22.32 98.3424 22.2067 98.3558 22.14V21.94L98.3758 21.84V21.58C98.3891 21.4467 98.3958 21.2667 98.3958 21.04C98.3958 20.8667 98.3891 20.7133 98.3758 20.58L98.3558 20.12L98.3358 20.04C98.2958 20.0133 98.2958 19.9933 98.3358 19.98C98.3891 19.7667 98.5558 19.6133 98.8358 19.52C98.9691 19.4667 99.1891 19.44 99.4958 19.44C99.7224 19.44 100.316 19.42 101.276 19.38C101.756 19.3533 102.056 19.34 102.176 19.34C102.376 19.3267 102.616 19.32 102.896 19.32C103.029 19.3333 103.122 19.36 103.176 19.4C103.229 19.4267 103.276 19.48 103.316 19.56C103.369 19.64 103.409 19.7 103.436 19.74L103.836 20.32C103.822 20.3067 103.989 20.5467 104.336 21.04C104.656 21.56 105.042 22.1467 105.496 22.8C105.562 22.9067 105.642 23.0267 105.736 23.16C105.829 23.2933 105.929 23.4467 106.036 23.62V22.92C106.049 22.7333 106.056 22.4667 106.056 22.12C106.056 21.6667 106.069 21.16 106.096 20.6C106.096 20.4933 106.102 20.4 106.116 20.32C106.129 20.2267 106.136 20.1533 106.136 20.1C106.136 19.9667 106.142 19.9 106.156 19.9C106.209 19.82 106.302 19.7333 106.436 19.64C106.596 19.5333 106.762 19.4867 106.936 19.5H107.936H108.136C108.336 19.5 108.502 19.5067 108.636 19.52H109.236C109.369 19.5333 109.569 19.54 109.836 19.54H110.276H110.476C110.742 19.54 110.942 19.5867 111.076 19.68C111.156 19.7333 111.209 19.8067 111.236 19.9C111.262 19.98 111.276 20.1067 111.276 20.28C111.276 20.4533 111.269 20.6 111.256 20.72C111.242 20.8533 111.236 21.0133 111.236 21.2V21.34C111.249 21.38 111.256 21.44 111.256 21.52V22.04L111.236 24.34V26.6V27.14C111.236 28.58 111.222 29.4933 111.196 29.88L111.136 30.54C111.069 30.8467 110.976 31.0067 110.856 31.02C110.829 31.02 110.789 31.0267 110.736 31.04C110.696 31.0533 110.649 31.06 110.596 31.06C110.116 31.06 109.762 31.0467 109.536 31.02H108.496H107.456H107.196C107.156 31.0333 107.102 31.04 107.036 31.04C106.876 31.04 106.709 31.0067 106.536 30.94C106.429 30.9133 106.316 30.84 106.196 30.72L104.436 28.24C104.369 28.1467 104.242 27.9933 104.056 27.78L103.796 27.54C103.729 27.4733 103.676 27.44 103.636 27.44C103.596 27.44 103.562 27.46 103.536 27.5C103.509 27.5267 103.496 27.5533 103.496 27.58V27.92C103.482 28.0267 103.476 28.1933 103.476 28.42V29C103.462 29.1467 103.456 29.3467 103.456 29.6V30.08V30.38C103.442 30.4067 103.436 30.4467 103.436 30.5C103.436 30.5133 103.416 30.62 103.376 30.82C103.349 30.8733 103.329 30.9067 103.316 30.92C103.302 30.9333 103.256 30.94 103.176 30.94C103.149 30.9267 103.122 30.92 103.096 30.92C103.082 30.92 103.069 30.92 103.056 30.92C102.002 31.0133 101.129 31.06 100.436 31.06H100.156ZM119.49 31.48C118.316 31.48 117.35 31.3733 116.59 31.16C115.576 30.88 114.79 30.34 114.23 29.54C113.603 28.6467 113.29 27.3467 113.29 25.64C113.29 24.6 113.43 23.6667 113.71 22.84C113.99 22 114.396 21.2933 114.93 20.72C115.463 20.16 116.083 19.7333 116.79 19.44C117.496 19.1467 118.263 19 119.09 19C120.476 19 121.916 19.4333 123.41 20.3L123.15 22.54L122.69 22.44C122.636 22.4267 122.43 22.38 122.07 22.3C121.71 22.22 121.383 22.18 121.09 22.18C120.463 22.18 119.996 22.3933 119.69 22.82C119.29 23.3533 119.09 24.2133 119.09 25.4C119.09 26.3733 119.23 27.1067 119.51 27.6C119.776 28.0133 120.136 28.22 120.59 28.22C120.91 28.22 121.283 28.1133 121.71 27.9C122.123 27.7 122.523 27.4667 122.91 27.2L123.11 30.04C122.643 30.48 122.07 30.8267 121.39 31.08C120.776 31.3467 120.143 31.48 119.49 31.48ZM126.225 31.26C125.985 31.26 125.831 31.02 125.765 30.54C125.725 30.34 125.705 30.16 125.705 30C125.705 29.7867 125.698 29.6533 125.685 29.6C125.671 29.2133 125.638 28.6 125.585 27.76L125.525 27C125.445 25.8267 125.405 24.96 125.405 24.4V19.54C125.405 19.4333 125.525 19.3533 125.765 19.3C125.898 19.26 126.085 19.24 126.325 19.24C126.485 19.24 126.658 19.2533 126.845 19.28C127.031 19.2933 127.171 19.3 127.265 19.3C127.465 19.3267 127.778 19.34 128.205 19.34L128.285 19.28H129.165C129.205 19.32 129.251 19.34 129.305 19.34H129.385C129.398 19.3267 129.431 19.32 129.485 19.32C129.511 19.3067 129.551 19.3 129.605 19.3C129.618 19.2867 129.631 19.28 129.645 19.28C129.658 19.28 129.665 19.28 129.665 19.28C129.705 19.28 129.751 19.2933 129.805 19.32C129.858 19.3333 129.898 19.34 129.925 19.34H131.405L131.465 22.78C131.465 22.7933 131.451 22.84 131.425 22.92C131.411 22.9867 131.398 23.08 131.385 23.2C131.345 23.68 131.325 24.06 131.325 24.34V28.24L131.265 29C131.225 29.3333 131.211 29.6067 131.225 29.82C131.225 30.1 131.211 30.3267 131.185 30.5C131.171 30.66 131.131 30.7867 131.065 30.88C130.985 30.9733 130.858 31.02 130.685 31.02L130.665 31L130.605 30.98C130.578 30.98 130.565 30.9867 130.565 31H130.465C130.385 31.0267 130.338 31.0467 130.325 31.06C130.258 31.06 130.105 31.04 129.865 31L129.585 30.98C129.518 30.98 129.478 31.0067 129.465 31.06H127.965H127.685L127.165 31.16L126.685 31.22L126.225 31.26ZM134.247 31.06C134.047 31.06 133.914 30.94 133.847 30.7C133.807 30.5667 133.787 30.3267 133.787 29.98C133.787 28.9533 133.774 28.06 133.747 27.3C133.707 26.14 133.687 24.9333 133.687 23.68V19.84C133.687 19.7333 133.734 19.6333 133.827 19.54C133.934 19.4467 134.041 19.4 134.147 19.4C135.107 19.4 135.774 19.4067 136.147 19.42L137.607 19.44C138.007 19.44 138.674 19.4267 139.607 19.4C140.087 19.3867 140.881 19.38 141.987 19.38C142.801 19.38 143.501 19.48 144.087 19.68C144.834 19.92 145.467 20.3067 145.987 20.84C146.521 21.48 146.787 22.3267 146.787 23.38C146.787 25.1133 146.341 26.3933 145.447 27.22C144.634 27.9533 143.454 28.32 141.907 28.32H139.527C139.527 28.72 139.514 28.96 139.487 29.04C139.487 29.1333 139.481 29.2 139.467 29.24C139.454 29.28 139.447 29.3067 139.447 29.32C139.447 29.36 139.461 29.4 139.487 29.44V29.72L139.527 29.98V30.12C139.527 30.48 139.447 30.7333 139.287 30.88C139.221 30.9333 139.121 30.9667 138.987 30.98C138.867 30.9933 138.734 31 138.587 31H137.507L136.947 31.02C136.387 31.0467 135.934 31.06 135.587 31.06H134.247ZM140.487 26.22C140.701 26.22 140.874 25.9933 141.007 25.54C141.101 25.2333 141.174 24.76 141.227 24.12C141.241 23.8 141.247 23.4267 141.247 23V22.82C141.247 22.5267 141.214 22.2467 141.147 21.98C141.081 21.58 140.967 21.3133 140.807 21.18C140.714 21.0867 140.607 21.04 140.487 21.04C140.381 21.04 140.287 21.1067 140.207 21.24C140.061 21.52 139.954 21.9867 139.887 22.64C139.821 23.0133 139.787 23.3333 139.787 23.6C139.721 24.2133 139.687 25.0733 139.687 26.18C139.687 26.18 139.694 26.1867 139.707 26.2C139.734 26.2 139.761 26.2 139.787 26.2C139.801 26.2133 139.874 26.22 140.007 26.22H140.487ZM148.712 31.02C148.458 31.02 148.358 30.7933 148.412 30.34C148.412 30.18 148.445 30 148.512 29.8C148.512 29.7067 148.518 29.6333 148.532 29.58C148.545 29.5133 148.552 29.46 148.552 29.42C148.858 27.9667 149.198 26.5333 149.572 25.12L150.932 19.8C150.932 19.7733 150.952 19.74 150.992 19.7C151.032 19.66 151.072 19.6267 151.112 19.6H151.252C151.412 19.6 151.538 19.58 151.632 19.54C151.712 19.5267 151.852 19.52 152.052 19.52C152.372 19.52 152.612 19.5267 152.772 19.54C153.012 19.58 153.258 19.6 153.512 19.6L154.552 19.58C154.658 19.5533 154.785 19.54 154.932 19.54L155.812 19.5H156.472C156.725 19.5 156.972 19.5067 157.212 19.52H157.772C157.905 19.5333 158.098 19.54 158.352 19.54H159.112C159.152 19.54 159.192 19.5467 159.232 19.56C159.272 19.5733 159.305 19.5867 159.332 19.6C159.385 19.6267 159.452 19.64 159.532 19.64H159.712C159.805 19.7067 159.852 19.7733 159.852 19.84L161.272 25.12C161.712 26.8133 162.058 28.2467 162.312 29.42C162.312 29.4867 162.332 29.6133 162.372 29.8C162.425 30.0667 162.452 30.28 162.452 30.44C162.452 30.5333 162.438 30.66 162.412 30.82C162.345 30.9533 162.252 31.02 162.132 31.02H161.912C161.738 31.02 161.605 31.0133 161.512 31H161.072H160.652H160.312C160.218 31 160.165 30.9933 160.152 30.98H159.052L159.032 30.94C159.005 30.9133 158.965 30.9 158.912 30.9L158.852 30.94C158.852 30.9667 158.838 30.98 158.812 30.98H158.752H158.612C158.545 30.9533 158.425 30.94 158.252 30.94C157.932 30.9133 157.665 30.9 157.452 30.9C157.305 30.5933 157.132 29.92 156.932 28.88C156.652 28.92 156.332 28.94 155.972 28.94H155.452H154.952C154.898 29.14 154.865 29.3067 154.852 29.44C154.838 29.5067 154.785 29.7333 154.692 30.12C154.598 30.5067 154.512 30.7667 154.432 30.9L154.312 30.94C154.272 30.9533 154.238 30.9667 154.212 30.98C154.185 30.98 154.172 30.98 154.172 30.98H154.132C154.052 30.98 153.998 30.9667 153.972 30.94C153.918 30.9133 153.885 30.9 153.872 30.9L153.112 30.94H152.552C152.485 30.9533 152.432 30.9667 152.392 30.98C152.352 30.98 152.325 30.98 152.312 30.98H150.712H150.552C150.432 30.9933 150.185 31 149.812 31H149.332C149.252 31.0133 149.125 31.02 148.952 31.02H148.712ZM156.752 26.74C156.672 26.2867 156.625 26.02 156.612 25.94L156.452 24.98C156.425 24.7933 156.398 24.6267 156.372 24.48C156.345 24.32 156.325 24.1733 156.312 24.04C156.272 23.88 156.238 23.7333 156.212 23.6C156.198 23.4533 156.178 23.32 156.152 23.2C156.138 23.12 156.125 23.02 156.112 22.9C156.098 22.7667 156.078 22.6733 156.052 22.62L156.012 22.38C156.012 22.3267 155.998 22.28 155.972 22.24L155.952 22.12C155.925 22.2 155.912 22.24 155.912 22.24V22.32V22.38C155.912 22.3933 155.905 22.42 155.892 22.46C155.878 22.4867 155.865 22.54 155.852 22.62C155.838 22.6867 155.825 22.7733 155.812 22.88C155.798 22.9733 155.778 23.08 155.752 23.2L155.612 24.02L155.452 24.94L155.392 25.38C155.365 25.4867 155.338 25.66 155.312 25.9C155.192 26.5 155.138 26.7733 155.152 26.72H156.032C156.045 26.7067 156.065 26.6933 156.092 26.68C156.118 26.6533 156.138 26.64 156.152 26.64H156.212C156.278 26.64 156.332 26.6467 156.372 26.66C156.425 26.6733 156.472 26.6867 156.512 26.7C156.592 26.7267 156.672 26.74 156.752 26.74ZM170.184 31.1L169.924 31.06H169.604C169.404 31.0333 169.057 31.0067 168.564 30.98C168.457 30.98 168.357 30.9733 168.264 30.96C168.171 30.9467 168.084 30.94 168.004 30.94H167.564L167.364 30.92C166.937 30.92 166.624 30.9267 166.424 30.94C166.224 30.9667 165.911 30.98 165.484 30.98H165.084L164.724 31L164.664 30.92V30.7V30.2V29.68V29.34V27.98C164.664 27.66 164.651 27.4267 164.624 27.28V26.8L164.704 25.94C164.744 25.4067 164.764 24.64 164.764 23.64C164.791 22.0267 164.891 20.86 165.064 20.14C165.157 19.7533 165.311 19.5067 165.524 19.4L167.864 19.42C168.064 19.4333 168.351 19.44 168.724 19.44H169.684C169.751 19.4533 169.871 19.4667 170.044 19.48C170.231 19.4933 170.371 19.5267 170.464 19.58C170.544 19.6467 170.597 19.74 170.624 19.86C170.664 19.9667 170.684 20.1267 170.684 20.34L170.664 20.5V20.74C170.624 20.8333 170.604 20.9267 170.604 21.02C170.577 21.1267 170.571 21.2333 170.584 21.34V21.64C170.597 21.7067 170.604 21.8 170.604 21.92L170.624 22.08V22.54L170.644 23.18C170.657 23.3133 170.664 23.5 170.664 23.74C170.691 23.9267 170.724 24.0533 170.764 24.12C170.764 24.2133 170.757 24.3133 170.744 24.42C170.731 24.5267 170.724 24.6333 170.724 24.74C170.711 24.9 170.704 25.14 170.704 25.46C170.704 25.7667 170.711 25.9933 170.724 26.14C170.724 26.3533 170.757 26.5733 170.824 26.8C170.957 26.8533 171.111 26.88 171.284 26.88C171.724 26.88 172.177 26.8733 172.644 26.86C173.124 26.8467 173.551 26.8067 173.924 26.74C174.004 26.7533 174.077 26.8067 174.144 26.9C174.224 26.9933 174.264 27.0733 174.264 27.14L174.124 30.58C174.097 30.66 174.044 30.7133 173.964 30.74C173.737 30.8467 173.424 30.9133 173.024 30.94C172.491 31.02 172.137 31.06 171.964 31.06H171.624C171.357 31.06 171.157 31.0667 171.024 31.08C170.757 31.1067 170.571 31.12 170.464 31.12L170.184 31.1ZM176.733 30.92C176.706 30.92 176.686 30.8933 176.673 30.84C176.579 30.72 176.513 30.5733 176.473 30.4C176.433 30.3333 176.399 30.2467 176.373 30.14C176.253 29.9 176.166 29.5667 176.113 29.14C176.059 28.5267 176.033 28.04 176.033 27.68C176.019 27.52 176.013 27.3 176.013 27.02V26.54C176.013 26.14 176.006 25.8267 175.993 25.6C175.979 25.36 175.973 24.8867 175.973 24.18C175.973 22.2867 176.013 20.8267 176.093 19.8C176.093 19.64 176.319 19.52 176.773 19.44H177.373H177.873C178.633 19.44 179.199 19.4533 179.573 19.48C180.133 19.52 180.699 19.54 181.273 19.54C181.406 19.54 181.506 19.5333 181.573 19.52H181.873L181.973 19.6C182.413 19.5067 182.866 19.4467 183.333 19.42C183.799 19.3933 184.366 19.38 185.033 19.38C185.059 19.38 185.093 19.4 185.133 19.44H185.773C185.879 19.44 185.959 19.5 186.013 19.62C186.079 19.74 186.133 19.9133 186.173 20.14C186.226 20.3133 186.266 20.5267 186.293 20.78C186.346 21.1133 186.393 21.3333 186.433 21.44C186.433 21.8133 186.366 22 186.233 22C186.219 22 186.199 21.98 186.173 21.94L186.093 21.92C186.026 21.9067 185.953 21.9133 185.873 21.94C185.793 21.98 185.706 22 185.613 22C185.533 22 185.466 21.98 185.413 21.94C185.386 21.9267 185.326 21.92 185.233 21.92C185.113 21.92 184.973 21.94 184.812 21.98C184.759 21.9933 184.653 22.0133 184.493 22.04C184.346 22.0667 184.173 22.08 183.973 22.08C183.399 22.08 182.986 22.0933 182.733 22.12C182.586 22.1333 182.446 22.1733 182.313 22.24V22.2C182.259 22.2 182.213 22.2667 182.173 22.4C182.079 22.6267 182.019 22.94 181.993 23.34C181.979 23.46 181.973 23.5933 181.973 23.74C181.973 23.8867 181.993 23.9867 182.033 24.04C182.086 24.0933 182.166 24.12 182.273 24.12C182.353 24.12 182.419 24.0933 182.473 24.04C182.499 24.04 182.533 24.0467 182.573 24.06C182.613 24.0733 182.646 24.0933 182.673 24.12H184.373C184.386 24.0933 184.406 24.0733 184.433 24.06C184.459 24.0467 184.486 24.04 184.513 24.04C184.646 24.04 184.746 24.06 184.812 24.1C184.893 24.14 185.053 24.18 185.293 24.22C185.426 24.22 185.519 24.26 185.573 24.34C185.639 24.4333 185.673 24.52 185.673 24.6L186.093 25.92C186.133 26.1333 185.933 26.2733 185.493 26.34C185.239 26.3933 184.753 26.42 184.033 26.42H183.173H182.573C182.386 26.42 182.246 26.4333 182.153 26.46C182.059 26.4733 181.999 26.52 181.973 26.6C181.919 26.6667 181.893 26.7733 181.893 26.92V27C181.893 27.0667 181.899 27.1133 181.913 27.14L181.893 27.58C181.879 27.6733 181.873 27.8133 181.873 28V28.2V28.38V28.5C182.473 28.5 183.086 28.48 183.713 28.44C184.326 28.4 184.933 28.38 185.533 28.38C185.573 28.38 185.606 28.4133 185.633 28.48C185.659 28.5333 185.673 28.6 185.673 28.68C185.699 28.76 185.713 28.8467 185.713 28.94C185.739 29.14 185.779 29.3267 185.832 29.5L185.973 30.08V30.48V30.54V30.7L185.813 30.84H185.673H185.613C185.466 30.84 185.373 30.8333 185.333 30.82C185.293 30.7933 185.246 30.78 185.193 30.78C185.166 30.7933 185.126 30.8133 185.073 30.84C185.019 30.8667 184.973 30.8933 184.933 30.92V30.82L184.693 30.84H184.393C184.339 30.84 184.299 30.8267 184.273 30.8L184.113 30.78C183.619 30.78 183.273 30.8267 183.073 30.92H176.733ZM190.949 31.4L190.489 31.32C190.049 31.2533 189.682 31.1733 189.389 31.08C189.229 31.0667 189.089 31.02 188.969 30.94C188.862 30.9 188.795 30.8467 188.769 30.78L188.329 28.3V28.2C188.329 28.1067 188.335 28.04 188.349 28C188.375 27.9467 188.422 27.9133 188.489 27.9C189.355 28.2333 190.209 28.4 191.049 28.4C191.315 28.4 191.522 28.4067 191.669 28.42C192.175 28.42 192.542 28.3533 192.769 28.22C192.889 28.14 192.949 28.0267 192.949 27.88C192.949 27.6667 192.882 27.4933 192.749 27.36C192.615 27.2133 192.422 27.0867 192.169 26.98L191.529 26.74C191.342 26.7 191.129 26.6267 190.889 26.52C190.889 26.5067 190.882 26.5 190.869 26.5C190.855 26.4867 190.842 26.4667 190.829 26.44C190.775 26.4267 190.662 26.36 190.489 26.24L190.369 26.18C190.395 26.18 190.409 26.1733 190.409 26.16C190.409 26.1467 190.389 26.1333 190.349 26.12C190.309 26.0933 190.229 26.0533 190.109 26C190.002 25.9333 189.909 25.86 189.829 25.78C189.709 25.7133 189.649 25.6333 189.649 25.54V25.44C189.315 25.44 189.029 25.0933 188.789 24.4C188.589 23.6933 188.489 23.1933 188.489 22.9C188.489 21.66 189.022 20.7067 190.089 20.04C190.955 19.4933 192.149 19.1267 193.669 18.94C194.655 18.8333 195.882 18.78 197.349 18.78C197.535 18.8467 197.682 18.8867 197.789 18.9C198.029 18.9133 198.189 18.9933 198.269 19.14C198.309 19.2067 198.342 19.34 198.369 19.54C198.409 19.7533 198.449 20.3733 198.489 21.4C198.515 21.4267 198.529 21.4667 198.529 21.52C198.529 21.6267 198.382 21.7133 198.089 21.78C197.769 21.82 197.562 21.84 197.469 21.84L197.009 21.9C196.489 21.9667 196.149 22.0133 195.989 22.04C195.442 22.1333 195.062 22.3 194.849 22.54C194.715 22.7 194.649 22.8667 194.649 23.04C194.649 23.1333 194.662 23.2067 194.689 23.26C194.715 23.3133 194.782 23.3733 194.889 23.44C195.009 23.5067 195.355 23.6733 195.929 23.94C196.542 24.2067 197.155 24.5533 197.769 24.98C198.289 25.34 198.662 25.82 198.889 26.42C199.009 26.6733 199.069 27.0067 199.069 27.42C199.069 27.7933 199.022 28.1133 198.929 28.38C198.582 29.26 197.929 29.98 196.969 30.54C196.515 30.8067 196.042 31.0133 195.549 31.16C195.055 31.32 194.582 31.4 194.129 31.4L191.189 31.46L190.949 31.4Z" fill="black"/>
<g clip-path="url(#clip0_2033_240)">
<mask id="mask0_2033_240" style="mask-type:luminance" maskUnits="userSpaceOnUse" x="0" y="0" width="53" height="30">
<path d="M0 0H52.7326V29.9827H0V0Z" fill="white"/>
</mask>
<g mask="url(#mask0_2033_240)">
<path d="M50.2597 26.9893C49.7706 26.9877 49.2811 26.9893 48.7835 26.9893H48.3007L48.2511 26.6713C48.2018 26.3606 48.159 26.0896 48.1215 25.8155C47.5216 21.4335 46.3664 17.6695 44.5891 14.3071C41.6923 8.82523 37.2997 5.28205 31.5369 3.77575C30.9417 3.6191 30.3311 3.47745 29.7404 3.33961C29.5188 3.2877 29.2957 3.23545 29.0715 3.18293C29.0715 3.1129 29.0735 3.0451 29.0744 2.9782C29.0779 2.72514 29.0813 2.48582 29.0675 2.2473C29.019 1.40129 28.8163 0.846237 28.4298 0.500542C28.0434 0.154846 27.4804 0.0203467 26.6533 0.0727047C25.6955 0.133789 24.6849 0.243426 23.4723 0.417728C22.5661 0.547952 21.9371 0.720002 21.6032 1.17354C21.2693 1.62709 21.2857 2.30726 21.426 3.2544C21.4209 3.26671 21.414 3.28025 21.4069 3.29568C21.4045 3.30105 21.402 3.30649 21.3993 3.31208L21.1596 3.3678C20.8937 3.42955 20.618 3.49385 20.3422 3.55965C14.1793 5.0306 9.76505 8.50716 7.22257 13.8929C5.0601 18.4737 4.04956 23.3878 3.35316 27.614L2.79427 27.6733C2.17633 27.7386 1.55831 27.804 0.941253 27.8747C0.794808 27.8818 0.651745 27.921 0.521706 27.9895C0.39167 28.0579 0.277871 28.1539 0.188058 28.271C0.126904 28.3638 0.0872041 28.4696 0.0718659 28.5802C0.0565276 28.6909 0.0658556 28.8035 0.0993452 28.91C0.16819 29.0946 0.278535 29.2608 0.421526 29.3953C0.564514 29.5298 0.736211 29.6289 0.92351 29.6853C1.3512 29.7828 1.78959 29.8251 2.22781 29.8108H2.44938C6.90683 29.7869 10.9333 29.7638 15.0722 29.7213C17.5184 29.696 19.9645 29.6663 22.4105 29.6318C26.6761 29.5758 31.0871 29.5184 35.4251 29.4991C38.7418 29.4848 42.1163 29.5215 45.3793 29.5568C47.026 29.5748 48.6728 29.5909 50.3198 29.605C51.5037 29.6137 52.6008 29.4669 52.6278 28.3495C52.6376 28.1996 52.6164 28.049 52.5657 27.9078C52.5151 27.7664 52.4361 27.6373 52.3335 27.5281C51.9851 27.1627 51.3261 26.9924 50.2597 26.9893ZM44.905 26.7349V26.7391L5.87802 27.507C5.88798 27.4321 5.8975 27.3567 5.90702 27.2815C5.94189 26.9394 6.00198 26.6009 6.08661 26.2677C6.23623 25.7374 6.38429 25.2067 6.53084 24.6755C7.28637 21.9525 8.06743 19.137 9.18789 16.4802C11.5032 10.9911 15.4298 7.71209 21.1927 6.45618C22.6266 6.14009 24.09 5.97921 25.5577 5.97655C28.563 5.98429 31.5278 6.67828 34.2301 8.0065C37.1643 9.42284 39.548 11.7367 41.3108 14.8838C43.1277 18.1244 44.3021 21.8622 44.8986 26.3109C44.9125 26.4518 44.9145 26.5937 44.905 26.7349ZM23.7134 2.97252C24.6349 2.76635 25.5761 2.6652 26.5197 2.67077C26.5847 2.75539 26.6438 2.84409 26.697 2.93647C26.7041 2.94833 26.7116 2.96044 26.7193 2.97252H23.7134Z" fill="black"/>
</g>
</g>
<g clip-path="url(#clip1_2033_240)">
<path fill-rule="evenodd" clip-rule="evenodd" d="M241.636 15.9981C241.636 19.7562 240.358 22.965 237.798 25.6131C235.235 28.2649 232.136 29.5909 228.504 29.5909C224.885 29.5909 221.787 28.2687 219.22 25.6131C216.657 22.965 215.368 19.7562 215.368 15.9981C215.368 12.2514 216.653 9.05778 219.22 6.39833C221.795 3.74646 224.889 2.41295 228.504 2.41295C232.136 2.41295 235.235 3.74267 237.798 6.39833C240.354 9.05778 241.636 12.2514 241.636 15.9981ZM211.995 13.494C213.148 12.6795 213.727 11.6149 213.628 9.17901V2.9168C213.617 2.04168 212.083 1.93561 212.006 2.9168L211.947 7.99703C211.944 8.94792 210.563 8.97823 210.567 7.99703L210.625 2.74254C210.607 1.80301 209.142 1.7083 209.124 2.74254C209.124 4.20107 209.065 6.5385 209.065 7.99703C209.138 8.91761 207.857 9.03884 207.89 7.99703L207.948 2.77663C207.915 2.0682 207.161 1.81438 206.648 2.14776C206.103 2.50766 206.212 3.23124 206.19 3.84117L206 9.8344C206.029 11.5771 206.472 12.9939 207.791 13.5963C207.992 13.6872 208.271 13.7592 208.593 13.8084L208.139 28.424C208.113 29.2916 208.798 30 209.6 30H209.783C210.688 30 211.453 29.2007 211.427 28.227L211.028 13.8046C211.449 13.7364 211.797 13.6342 211.995 13.494ZM245.089 27.9846L245.067 14.8578C240.618 12.1984 242.035 1.95076 246.488 2.00759C251.901 2.07199 252.542 13.5546 247.887 14.8161L248.231 28.0376C248.297 30.538 245.093 30.7691 245.089 27.9846ZM236.15 15.9867C236.15 18.1764 235.407 20.0441 233.909 21.5936C232.415 23.1354 230.609 23.9121 228.493 23.9121C226.391 23.9121 224.585 23.1354 223.091 21.5936C221.597 20.0441 220.85 18.1764 220.85 15.9867C220.85 13.8122 221.597 11.9445 223.091 10.4027C224.589 8.86079 226.391 8.08417 228.493 8.08417C232.744 8.08796 236.15 11.5846 236.15 15.9867ZM237.941 15.9867C237.941 13.297 237.025 10.9974 235.183 9.09188C233.341 7.18632 231.111 6.23922 228.493 6.23922C225.882 6.23922 223.659 7.18632 221.828 9.09188C219.986 10.9974 219.059 13.297 219.059 15.9867C219.059 18.6841 219.986 20.9836 221.828 22.8968C223.659 24.8061 225.882 25.7646 228.493 25.7646C231.107 25.7646 233.338 24.8061 235.183 22.8968C237.022 20.9798 237.941 18.6803 237.941 15.9867Z" fill="black"/>
</g>
<defs>
<clipPath id="clip0_2033_240">
<rect width="53" height="30" fill="white"/>
</clipPath>
<clipPath id="clip1_2033_240">
<rect width="45" height="28" fill="white" transform="translate(206 2)"/>
</clipPath>
</defs>
</svg>
