<svg xmlns="http://www.w3.org/2000/svg" xmlns:xlink="http://www.w3.org/1999/xlink" width="1056" zoomAndPan="magnify" viewBox="0 0 792 611.999999" height="816" preserveAspectRatio="xMidYMid meet" version="1.0"><defs><clipPath id="75b4f72d10"><path d="M 0 0 L 429.269531 0 L 429.269531 263 L 0 263 Z M 0 0 " clip-rule="nonzero"/></clipPath><clipPath id="a4cbfbef3b"><path d="M 232 239 L 288 239 L 288 356.402344 L 232 356.402344 Z M 232 239 " clip-rule="nonzero"/></clipPath><clipPath id="165d92b326"><path d="M 581 265 L 642 265 L 642 390.75 L 581 390.75 Z M 581 265 " clip-rule="nonzero"/></clipPath><clipPath id="91bb98dae6"><path d="M 0.304688 334.644531 L 214.5 334.644531 L 214.5 612 L 0.304688 612 Z M 0.304688 334.644531 " clip-rule="nonzero"/></clipPath><clipPath id="2c37a5dda1"><path d="M 0.304688 334.644531 L 78 334.644531 L 78 475 L 0.304688 475 Z M 0.304688 334.644531 " clip-rule="nonzero"/></clipPath><clipPath id="fd10092be2"><path d="M 0.304688 334.644531 L 45 334.644531 L 45 398 L 0.304688 398 Z M 0.304688 334.644531 " clip-rule="nonzero"/></clipPath><clipPath id="68d410dd3d"><path d="M 0.304688 474 L 214.5 474 L 214.5 612 L 0.304688 612 Z M 0.304688 474 " clip-rule="nonzero"/></clipPath><clipPath id="d726846e13"><path d="M 0.304688 397 L 78 397 L 78 612 L 0.304688 612 Z M 0.304688 397 " clip-rule="nonzero"/></clipPath><clipPath id="61bdfb2357"><path d="M 575.503906 346.53125 L 792 346.53125 L 792 612 L 575.503906 612 Z M 575.503906 346.53125 " clip-rule="nonzero"/></clipPath><clipPath id="fe84daa0c1"><path d="M 714 346.53125 L 792 346.53125 L 792 488 L 714 488 Z M 714 346.53125 " clip-rule="nonzero"/></clipPath><clipPath id="02ea55b2c0"><path d="M 747 346.53125 L 792 346.53125 L 792 410 L 747 410 Z M 747 346.53125 " clip-rule="nonzero"/></clipPath><clipPath id="47f9f8418d"><path d="M 575.503906 487 L 792 487 L 792 612 L 575.503906 612 Z M 575.503906 487 " clip-rule="nonzero"/></clipPath></defs><g clip-path="url(#75b4f72d10)"><path fill="#f8bc00" d="M 402.335938 75.023438 L 402.335938 75.027344 L 399.863281 98.78125 C 396.628906 129.871094 401.238281 165.308594 399.335938 186.054688 C 394.890625 234.519531 378.984375 253.339844 362.363281 253.546875 L 362.324219 253.546875 C 362.300781 253.546875 362.277344 253.546875 362.269531 253.546875 C 362.265625 253.546875 362.261719 253.546875 362.257812 253.546875 C 362.246094 253.546875 362.238281 253.546875 362.226562 253.546875 L 362.230469 253.546875 C 345.570312 253.621094 333.804688 223.070312 327.265625 197.996094 C 320.722656 172.898438 335.558594 122.304688 336.714844 119.988281 C 341.019531 111.363281 340.816406 90.785156 336.179688 77.121094 C 328.898438 55.652344 307.367188 33.207031 285.726562 20.894531 C 279.472656 17.335938 273.402344 15.65625 268.09375 15.71875 C 257.449219 15.851562 249.859375 23.015625 250.023438 36.242188 C 250.058594 39.230469 250.492188 42.53125 251.378906 46.128906 C 253.976562 56.714844 260.476562 69.875 267.304688 83.695312 L 267.320312 83.726562 C 274.859375 98.992188 282.792969 115.050781 286.292969 129.308594 C 287.847656 135.625 288.53125 141.589844 287.921875 146.972656 C 285.949219 164.5 270.316406 175.871094 254.8125 176.066406 C 245.046875 176.183594 235.332031 171.875 229.105469 161.875 C 219.246094 146.042969 218.128906 115.957031 217.125 88.816406 L 217.121094 88.773438 L 217.113281 88.59375 C 216.480469 71.460938 215.878906 55.519531 213.136719 45.09375 C 210.472656 34.949219 205.792969 30.042969 200.675781 30.105469 C 192.164062 30.210938 182.347656 44.0625 178.429688 70.75 C 175.511719 90.644531 175.871094 117.644531 176.238281 144.949219 L 176.238281 144.976562 C 176.609375 172.898438 176.988281 201.132812 173.867188 222.398438 C 173.484375 225.011719 173.046875 227.527344 172.546875 229.917969 C 168.300781 250.375 159.695312 262.144531 150.90625 262.253906 C 142.152344 262.363281 133.277344 250.902344 128.398438 225.085938 C 124.195312 202.824219 122.957031 169.863281 121.726562 137.082031 L 121.726562 137.058594 L 121.714844 136.777344 C 120.503906 104.441406 119.285156 72.316406 115.226562 50.832031 L 115.226562 50.828125 C 113.84375 43.511719 111.546875 34.027344 108.703125 30 C 101.988281 20.492188 93.730469 16.929688 88.269531 16.996094 C 77.457031 17.128906 65.296875 19.335938 57.6875 34.152344 C 52.820312 43.628906 47.089844 57.808594 40.871094 60.996094 C 37.386719 62.785156 30.925781 64.066406 28.167969 64.078125 C 12.972656 64.144531 16.246094 33.203125 14.402344 18.507812 C 12.878906 6.351562 -12.496094 5.117188 -3.609375 -9.265625 L 24.203125 -8.8125 L 429.222656 -10.328125 Z M 402.335938 75.023438 " fill-opacity="1" fill-rule="nonzero"/></g><g clip-path="url(#a4cbfbef3b)"><path fill="#f8bc00" d="M 260.578125 239.222656 C 260.726562 239.21875 260.867188 239.304688 260.929688 239.441406 C 275.160156 269.988281 289.292969 300.492188 287.617188 322.601562 C 286.078125 342.878906 271.246094 356.101562 258.1875 356.261719 C 256.90625 356.277344 255.640625 356.167969 254.40625 355.925781 C 240.609375 353.222656 230.78125 334.066406 232.46875 311.808594 C 234.140625 289.730469 247.148438 264.585938 260.242188 239.425781 C 260.304688 239.300781 260.433594 239.222656 260.574219 239.222656 Z M 260.578125 239.222656 " fill-opacity="1" fill-rule="nonzero"/></g><path fill="#f9f9f9" d="M 345.875 132.273438 L 345.871094 132.351562 C 344.582031 141.800781 343.90625 147.695312 343.835938 150.042969 L 343.476562 156.785156 L 343.464844 162.941406 C 343.558594 167.261719 343.804688 171.277344 344.207031 174.988281 C 344.660156 179.054688 345.335938 183.199219 346.234375 187.425781 L 346.359375 189.449219 L 346.960938 194.417969 C 347.453125 197.886719 348.25 201.914062 349.347656 206.492188 C 350.433594 210.644531 351.675781 214.785156 353.066406 218.910156 C 356.757812 228.628906 359.210938 234.582031 360.425781 236.773438 C 361.578125 239.324219 362.785156 241.367188 364.046875 242.894531 L 362.210938 240.488281 C 360.582031 239 358.273438 236.519531 355.277344 233.046875 L 351.324219 227.90625 C 348.421875 223.664062 346.109375 219.839844 344.390625 216.441406 C 340.003906 207.777344 336.769531 198.613281 334.683594 188.953125 C 334.046875 182.085938 333.957031 175.714844 334.425781 169.847656 C 334.859375 164.492188 335.476562 160.039062 336.273438 156.492188 C 337.113281 152.074219 338.429688 147.421875 340.234375 142.535156 C 341.546875 139.011719 342.996094 135.839844 344.574219 133.023438 C 344.785156 132.441406 345.21875 132.1875 345.875 132.273438 " fill-opacity="1" fill-rule="nonzero"/><path fill="#f9f9f9" d="M 275.6875 155.210938 L 275.675781 155.234375 C 272.007812 160.765625 267.175781 164.269531 261.179688 165.738281 C 257.554688 166.632812 254.046875 166.808594 250.65625 166.269531 C 247.707031 165.875 244.699219 164.875 241.636719 163.261719 C 241.453125 163.199219 241.25 162.914062 241.035156 162.398438 C 239.117188 160.8125 237.753906 159.480469 236.941406 158.402344 C 235.929688 157.152344 235.109375 155.984375 234.480469 154.902344 C 232.851562 152.160156 231.792969 149.371094 231.3125 146.542969 C 230.773438 143.632812 230.757812 140.746094 231.273438 137.894531 C 231.46875 136.675781 231.808594 135.394531 232.296875 134.046875 L 234.585938 128.480469 C 233.6875 130.117188 233.265625 132.09375 233.316406 134.414062 C 233.136719 136.578125 233.640625 139.554688 234.828125 143.335938 C 236.683594 148.160156 239.523438 151.886719 243.351562 154.511719 L 245.570312 155.824219 L 246.300781 155.832031 C 247.300781 156.605469 248.292969 157.242188 249.277344 157.742188 C 250.121094 158.191406 251.078125 158.605469 252.140625 158.992188 C 254.152344 159.714844 256.371094 160.121094 258.800781 160.203125 C 260.789062 160.324219 263.085938 160.054688 265.699219 159.398438 C 269.058594 158.492188 272.128906 156.957031 274.90625 154.796875 C 274.90625 154.671875 275.167969 154.8125 275.6875 155.210938 " fill-opacity="1" fill-rule="nonzero"/><path fill="#f9f9f9" d="M 259.117188 348.785156 L 259.082031 348.773438 C 254.007812 346.503906 249.535156 342.949219 245.667969 338.113281 C 241.921875 333.273438 239.347656 327.996094 237.941406 322.277344 C 237.917969 322.136719 237.910156 322 237.917969 321.859375 C 238.0625 321.40625 238.132812 321.066406 238.128906 320.84375 C 238.042969 319.082031 238.058594 317.304688 238.171875 315.503906 L 238.511719 312.246094 C 238.722656 310.144531 239.445312 307.367188 240.667969 303.917969 L 241.976562 300.890625 C 242.734375 299.351562 243.59375 297.855469 244.554688 296.410156 C 245.761719 294.652344 247 293.074219 248.265625 291.683594 L 249.832031 289.460938 C 247.890625 291.738281 246.339844 295.878906 245.1875 301.875 C 244.832031 303.839844 244.621094 305.726562 244.554688 307.523438 C 244.472656 309.332031 244.472656 310.953125 244.554688 312.390625 L 244.816406 315.289062 C 245.03125 316.9375 245.34375 318.515625 245.75 320.027344 C 246.101562 320.355469 246.277344 320.574219 246.277344 320.679688 L 246.570312 323.1875 C 246.78125 324.601562 247.09375 326.144531 247.511719 327.816406 C 247.960938 329.429688 248.542969 331.105469 249.257812 332.847656 C 249.507812 333.855469 250.761719 336.242188 253.015625 340.003906 C 254.894531 342.886719 257.023438 345.535156 259.398438 347.945312 C 259.425781 347.96875 259.421875 348.054688 259.382812 348.210938 L 259.117188 348.785156 " fill-opacity="1" fill-rule="nonzero"/><path fill="#f9f9f9" d="M 149.277344 248.128906 L 149.25 248.109375 C 145.207031 244.742188 142.085938 241.425781 139.886719 238.160156 C 137.53125 234.75 135.636719 231.238281 134.214844 227.628906 C 134.195312 227.613281 134.191406 227.527344 134.207031 227.367188 C 134.375 226.757812 134.441406 226.460938 134.40625 226.476562 C 133.71875 223.289062 133.425781 219.535156 133.527344 215.210938 C 133.585938 213.554688 133.746094 211.746094 134.007812 209.78125 C 134.289062 207.921875 134.671875 206.011719 135.152344 204.046875 L 135.472656 201.28125 C 135.246094 203.292969 135.148438 204.238281 135.183594 204.113281 C 135.15625 204.097656 135.257812 205.101562 135.476562 207.128906 C 135.933594 210.699219 136.683594 214.257812 137.726562 217.796875 C 138.113281 219.207031 138.902344 221.449219 140.097656 224.519531 C 140.152344 224.664062 140.238281 224.828125 140.355469 225.003906 L 140.867188 225.507812 C 140.917969 225.574219 140.960938 225.652344 140.992188 225.746094 C 141.28125 227.136719 141.957031 229.570312 143.027344 233.042969 C 143.730469 234.941406 144.371094 236.59375 144.953125 237.992188 C 146.515625 241.558594 148.105469 244.660156 149.722656 247.304688 C 149.757812 247.324219 149.757812 247.40625 149.71875 247.546875 L 149.277344 248.128906 " fill-opacity="1" fill-rule="nonzero"/><path fill="#f9f9f9" d="M 39.335938 52.984375 L 39.332031 52.992188 C 37.421875 55.011719 34.902344 56.191406 31.765625 56.527344 C 31.34375 56.597656 30.472656 56.566406 29.15625 56.433594 C 28.460938 56.332031 27.796875 56.183594 27.160156 55.988281 C 25.554688 55.460938 24.316406 54.839844 23.449219 54.117188 C 23.410156 54.089844 23.390625 54.035156 23.394531 53.945312 C 23.503906 53.503906 23.53125 53.265625 23.464844 53.234375 C 22.449219 51.957031 21.722656 50.667969 21.289062 49.363281 C 20.847656 47.878906 20.632812 46.832031 20.644531 46.222656 C 20.566406 44.960938 20.703125 43.695312 21.050781 42.433594 C 21.777344 40.277344 22.367188 38.832031 22.824219 38.101562 C 22.175781 39.339844 21.8125 40.1875 21.742188 40.644531 C 21.632812 41.109375 21.640625 42.035156 21.765625 43.425781 C 22.160156 45.867188 23.160156 47.863281 24.765625 49.40625 C 25.152344 49.789062 25.605469 50.152344 26.117188 50.496094 L 26.804688 50.179688 C 27.390625 50.808594 27.851562 51.242188 28.191406 51.488281 C 28.542969 51.777344 28.960938 52.050781 29.441406 52.3125 C 30.183594 52.71875 31.011719 53.019531 31.921875 53.222656 C 34.269531 53.738281 36.558594 53.449219 38.78125 52.363281 C 38.777344 52.339844 38.820312 52.367188 38.902344 52.441406 L 39.335938 52.984375 " fill-opacity="1" fill-rule="nonzero"/><path fill="#f9f9f9" d="M 343.136719 68.082031 L 343.097656 68.027344 C 338.980469 61.28125 336.21875 56.933594 334.8125 54.984375 C 331.007812 49.441406 327.414062 44.769531 324.03125 40.972656 L 322.816406 38.808594 L 320.363281 35.070312 L 317.324219 30.78125 C 312.796875 24.847656 309.71875 20.988281 308.085938 19.214844 C 305.398438 16.144531 303.917969 14.507812 303.640625 14.300781 C 303.789062 14.328125 302.980469 13.6875 301.222656 12.375 L 303.34375 13.941406 C 307.742188 16.351562 310.757812 18.152344 312.386719 19.347656 C 312.714844 19.492188 314.503906 20.792969 317.753906 23.25 L 322.359375 27.210938 C 323.800781 28.46875 326.550781 31.164062 330.609375 35.304688 C 333.695312 39.867188 336.773438 45.898438 339.847656 53.410156 C 340.945312 56.171875 341.980469 59.46875 342.949219 63.300781 C 343.527344 65.890625 343.800781 67.21875 343.769531 67.289062 C 343.808594 67.476562 343.597656 67.742188 343.136719 68.082031 " fill-opacity="1" fill-rule="nonzero"/><path fill="#f8bc00" d="M 31.425781 119.738281 C 31.519531 119.738281 31.605469 119.792969 31.640625 119.882812 C 40.132812 139.367188 48.5625 158.824219 47.15625 172.738281 C 45.867188 185.5 36.308594 193.605469 28.070312 193.5 C 27.261719 193.488281 26.464844 193.398438 25.691406 193.226562 L 25.691406 193.230469 C 17.035156 191.304688 11.140625 179.070312 12.554688 165.0625 C 13.957031 151.167969 22.554688 135.519531 31.207031 119.859375 C 31.25 119.785156 31.332031 119.734375 31.421875 119.738281 Z M 31.425781 119.738281 " fill-opacity="1" fill-rule="nonzero"/><path fill="#f9f9f9" d="M 35.738281 185.804688 L 35.734375 185.8125 C 35.308594 186.261719 34.855469 186.667969 34.371094 187.03125 C 34.164062 187.269531 33.371094 187.722656 31.984375 188.398438 C 30.886719 188.875 29.5625 189.195312 28.011719 189.363281 C 24.800781 189.433594 22.078125 188.621094 19.839844 186.925781 C 19.804688 186.898438 19.792969 186.84375 19.792969 186.765625 C 19.894531 186.371094 19.925781 186.140625 19.886719 186.070312 C 18.960938 184.917969 18.28125 183.765625 17.84375 182.617188 C 17.417969 181.371094 17.152344 180.253906 17.050781 179.261719 C 16.941406 178.058594 17.078125 176.722656 17.453125 175.253906 C 18.308594 172.785156 18.898438 171.339844 19.226562 170.917969 C 18.660156 171.964844 18.300781 172.8125 18.140625 173.460938 C 18.035156 173.726562 18.042969 174.652344 18.167969 176.242188 C 18.253906 176.785156 18.371094 177.304688 18.519531 177.804688 C 18.941406 179.011719 19.226562 179.710938 19.382812 179.898438 C 19.769531 180.679688 20.453125 181.539062 21.433594 182.476562 C 21.65625 182.6875 22.015625 182.96875 22.519531 183.316406 L 23.207031 182.996094 C 24.601562 184.59375 26.308594 185.605469 28.324219 186.039062 C 29.621094 186.257812 30.398438 186.339844 30.652344 186.289062 C 31.164062 186.285156 31.675781 186.238281 32.179688 186.15625 C 33.191406 185.992188 34.195312 185.664062 35.1875 185.171875 L 35.304688 185.261719 L 35.738281 185.804688 " fill-opacity="1" fill-rule="nonzero"/><path fill="#ffffff" d="M 117.46875 28.082031 L 117.546875 28.203125 C 119.210938 31.417969 120.90625 35.40625 122.636719 40.167969 C 124.59375 45.394531 126.632812 52.019531 128.757812 60.050781 C 132.546875 74.542969 135.265625 89.226562 136.914062 104.109375 C 137.382812 112.082031 137.554688 119.863281 137.433594 127.449219 C 137.351562 131.042969 137.226562 134.878906 137.054688 138.957031 C 137.023438 139.820312 136.785156 143.3125 136.335938 149.441406 C 135.351562 159.136719 134.582031 165.1875 134.027344 167.597656 C 133.441406 170.910156 133.074219 172.855469 132.929688 173.433594 L 130.464844 183.601562 C 130.535156 183.109375 130.554688 182.695312 130.527344 182.355469 C 130.398438 179.527344 130.304688 174.613281 130.242188 167.609375 L 130.269531 161.304688 C 130.210938 157.261719 130.179688 153.484375 130.171875 149.96875 L 129.898438 139.578125 L 129.328125 128.070312 L 128.46875 116.75 L 127.210938 104.089844 C 127.089844 102.90625 126.847656 99.609375 126.480469 94.195312 L 125.476562 83.742188 L 124.183594 72.960938 L 122.414062 60.652344 L 117.691406 33.203125 C 117.425781 31.390625 117.273438 30.085938 117.230469 29.289062 C 117.210938 29.152344 117.222656 28.949219 117.265625 28.675781 L 117.484375 28.238281 C 117.492188 28.199219 117.488281 28.148438 117.46875 28.082031 " fill-opacity="1" fill-rule="nonzero"/><path fill="#ffffff" d="M 209.792969 27.695312 L 209.816406 27.707031 C 216.042969 31.679688 220.640625 37.425781 223.605469 44.941406 L 223.707031 45.9375 C 223.898438 46.765625 224.109375 47.996094 224.347656 49.636719 C 224.375 49.816406 224.421875 50.292969 224.488281 51.078125 C 224.632812 53.296875 224.644531 55.140625 224.527344 56.597656 C 224.421875 58.074219 224.207031 59.566406 223.890625 61.0625 L 223.328125 63.300781 C 222.902344 64.652344 222.578125 65.625 222.359375 66.210938 L 222.117188 67.34375 C 222.335938 66.511719 222.4375 65.75 222.417969 65.066406 C 222.390625 62.308594 222.285156 60.214844 222.097656 58.785156 C 221.933594 57.378906 221.722656 55.960938 221.460938 54.535156 L 221 52.46875 C 220.589844 50.910156 220.292969 49.851562 220.101562 49.292969 C 220.027344 48.980469 219.75 48.203125 219.265625 46.960938 C 219.242188 46.863281 219.121094 46.667969 218.902344 46.378906 C 218.644531 45.261719 218.222656 43.886719 217.636719 42.25 C 217.300781 41.25 216.785156 39.988281 216.089844 38.46875 C 214.355469 34.871094 212.21875 31.449219 209.6875 28.203125 C 209.660156 28.183594 209.644531 28.128906 209.644531 28.039062 L 209.792969 27.695312 " fill-opacity="1" fill-rule="nonzero"/><path fill="#f8bc00" d="M 763.558594 90.957031 L 760.917969 116.269531 C 757.460938 149.394531 762.386719 187.148438 760.351562 209.253906 C 755.605469 260.890625 738.617188 280.941406 720.871094 281.160156 L 720.855469 281.164062 L 720.828125 281.164062 C 720.800781 281.164062 720.777344 281.164062 720.769531 281.164062 C 720.765625 281.164062 720.761719 281.164062 720.757812 281.164062 C 720.746094 281.164062 720.738281 281.164062 720.726562 281.164062 C 702.9375 281.242188 690.371094 248.691406 683.390625 221.976562 C 676.398438 195.238281 692.246094 141.332031 693.480469 138.863281 C 698.078125 129.675781 697.859375 107.75 692.910156 93.191406 C 685.132812 70.316406 662.140625 46.402344 639.03125 33.285156 C 632.351562 29.496094 625.867188 27.703125 620.199219 27.773438 C 608.828125 27.914062 600.726562 35.542969 600.902344 49.636719 C 600.941406 52.820312 601.402344 56.335938 602.347656 60.171875 C 605.125 71.449219 612.066406 85.472656 619.355469 100.195312 L 619.371094 100.230469 C 627.421875 116.492188 635.894531 133.605469 639.636719 148.796875 C 641.292969 155.523438 642.023438 161.878906 641.375 167.613281 C 639.265625 186.289062 622.574219 198.40625 606.015625 198.609375 C 595.589844 198.738281 585.214844 194.144531 578.5625 183.488281 C 568.035156 166.625 566.84375 134.566406 565.765625 105.652344 L 565.765625 105.605469 L 565.757812 105.414062 C 565.078125 87.160156 564.4375 70.175781 561.511719 59.066406 C 558.667969 48.257812 553.667969 43.03125 548.203125 43.097656 C 539.109375 43.210938 528.632812 57.96875 524.449219 86.40625 C 521.332031 107.597656 521.714844 136.367188 522.105469 165.460938 L 522.105469 165.488281 C 522.503906 195.234375 522.90625 225.320312 519.574219 247.972656 C 519.164062 250.761719 518.695312 253.4375 518.164062 255.984375 C 513.628906 277.78125 504.4375 290.324219 495.054688 290.441406 C 485.703125 290.558594 476.226562 278.347656 471.019531 250.839844 C 466.527344 227.121094 465.207031 192.003906 463.894531 157.078125 L 463.890625 157.050781 L 463.878906 156.75 C 462.585938 122.300781 461.285156 88.074219 456.953125 65.179688 C 455.476562 57.382812 453.019531 47.277344 449.984375 42.988281 C 442.8125 32.859375 433.996094 29.058594 428.164062 29.132812 C 416.617188 29.273438 403.628906 31.625 395.503906 47.410156 C 390.304688 57.507812 384.1875 72.613281 377.546875 76.011719 C 373.824219 77.917969 366.925781 79.28125 363.980469 79.292969 C 347.753906 79.367188 351.246094 46.402344 349.277344 30.738281 C 347.652344 17.789062 320.554688 16.472656 330.042969 1.148438 L 359.746094 1.632812 L 792.269531 0.0195312 Z M 763.558594 90.957031 " fill-opacity="1" fill-rule="nonzero"/><g clip-path="url(#165d92b326)"><path fill="#f8bc00" d="M 612.171875 265.898438 C 612.332031 265.898438 612.480469 265.988281 612.546875 266.136719 C 627.746094 298.679688 642.835938 331.179688 641.046875 354.738281 C 639.40625 376.34375 623.5625 390.429688 609.621094 390.601562 C 608.25 390.617188 606.898438 390.5 605.582031 390.242188 L 605.582031 390.246094 C 590.847656 387.363281 580.351562 366.949219 582.152344 343.238281 C 583.941406 319.714844 597.832031 292.925781 611.8125 266.121094 C 611.882812 265.984375 612.019531 265.902344 612.171875 265.898438 Z M 612.171875 265.898438 " fill-opacity="1" fill-rule="nonzero"/></g><path fill="#f9f9f9" d="M 703.261719 151.953125 L 703.261719 152.035156 C 701.882812 162.101562 701.160156 168.386719 701.085938 170.886719 L 700.703125 178.070312 L 700.691406 184.628906 C 700.789062 189.230469 701.054688 193.507812 701.484375 197.464844 C 701.96875 201.792969 702.6875 206.210938 703.648438 210.710938 L 703.78125 212.871094 L 704.421875 218.164062 C 704.949219 221.863281 705.800781 226.152344 706.972656 231.03125 C 708.132812 235.453125 709.457031 239.863281 710.945312 244.257812 C 714.886719 254.613281 717.503906 260.957031 718.800781 263.292969 C 720.03125 266.011719 721.320312 268.183594 722.667969 269.8125 L 720.707031 267.25 C 718.96875 265.664062 716.5 263.023438 713.300781 259.324219 L 709.082031 253.847656 C 705.980469 249.324219 703.515625 245.25 701.679688 241.632812 C 696.992188 232.398438 693.535156 222.636719 691.3125 212.34375 C 690.628906 205.023438 690.539062 198.238281 691.035156 191.988281 C 691.5 186.28125 692.160156 181.535156 693.011719 177.753906 C 693.902344 173.050781 695.3125 168.09375 697.238281 162.886719 C 698.640625 159.128906 700.1875 155.753906 701.875 152.753906 C 702.097656 152.128906 702.5625 151.863281 703.261719 151.953125 " fill-opacity="1" fill-rule="nonzero"/><path fill="#f9f9f9" d="M 628.308594 176.390625 L 628.296875 176.414062 C 624.378906 182.3125 619.21875 186.042969 612.8125 187.609375 C 608.945312 188.558594 605.199219 188.75 601.574219 188.175781 C 598.425781 187.753906 595.21875 186.6875 591.945312 184.96875 C 591.746094 184.902344 591.535156 184.597656 591.304688 184.046875 C 589.253906 182.359375 587.796875 180.941406 586.933594 179.789062 C 585.851562 178.460938 584.972656 177.21875 584.300781 176.066406 C 582.5625 173.140625 581.433594 170.171875 580.917969 167.15625 C 580.34375 164.054688 580.328125 160.980469 580.878906 157.941406 C 581.089844 156.644531 581.453125 155.277344 581.96875 153.839844 L 584.417969 147.910156 C 583.457031 149.65625 583.003906 151.761719 583.0625 154.234375 C 582.871094 156.539062 583.40625 159.710938 584.675781 163.742188 C 586.652344 168.882812 589.6875 172.851562 593.777344 175.648438 L 596.144531 177.046875 L 596.925781 177.054688 C 597.992188 177.878906 599.050781 178.554688 600.105469 179.085938 C 601.007812 179.566406 602.027344 180.011719 603.160156 180.417969 C 605.3125 181.191406 607.683594 181.621094 610.273438 181.710938 C 612.394531 181.839844 614.851562 181.550781 617.644531 180.851562 C 621.230469 179.886719 624.507812 178.253906 627.472656 175.953125 C 627.472656 175.820312 627.753906 175.964844 628.308594 176.390625 " fill-opacity="1" fill-rule="nonzero"/><path fill="#f9f9f9" d="M 610.613281 382.636719 L 610.578125 382.625 C 605.15625 380.203125 600.382812 376.417969 596.25 371.265625 C 592.25 366.109375 589.5 360.484375 588 354.390625 C 587.972656 354.242188 587.964844 354.09375 587.976562 353.949219 C 588.128906 353.464844 588.203125 353.101562 588.199219 352.863281 C 588.109375 350.988281 588.125 349.09375 588.246094 347.171875 L 588.609375 343.703125 C 588.835938 341.464844 589.601562 338.507812 590.914062 334.832031 L 592.308594 331.605469 C 593.117188 329.964844 594.035156 328.371094 595.0625 326.832031 C 596.351562 324.957031 597.671875 323.28125 599.023438 321.796875 L 600.695312 319.425781 C 598.621094 321.855469 596.96875 326.265625 595.734375 332.652344 C 595.355469 334.75 595.132812 336.757812 595.058594 338.675781 C 594.972656 340.597656 594.972656 342.324219 595.0625 343.855469 L 595.339844 346.945312 C 595.570312 348.703125 595.90625 350.386719 596.339844 351.996094 C 596.714844 352.34375 596.902344 352.578125 596.902344 352.6875 L 597.214844 355.359375 C 597.4375 356.867188 597.773438 358.515625 598.21875 360.296875 C 598.699219 362.011719 599.320312 363.796875 600.082031 365.65625 C 600.351562 366.730469 601.6875 369.269531 604.097656 373.277344 C 606.105469 376.351562 608.375 379.171875 610.914062 381.742188 C 610.941406 381.761719 610.9375 381.855469 610.894531 382.023438 L 610.613281 382.636719 " fill-opacity="1" fill-rule="nonzero"/><path fill="#f9f9f9" d="M 493.316406 275.390625 L 493.285156 275.371094 C 488.96875 271.78125 485.632812 268.25 483.285156 264.769531 C 480.769531 261.136719 478.75 257.398438 477.226562 253.546875 C 477.207031 253.535156 477.203125 253.441406 477.21875 253.269531 C 477.398438 252.621094 477.46875 252.304688 477.433594 252.324219 C 476.695312 248.925781 476.382812 244.925781 476.496094 240.316406 C 476.554688 238.554688 476.726562 236.625 477.007812 234.535156 C 477.308594 232.550781 477.714844 230.515625 478.230469 228.425781 L 478.574219 225.476562 C 478.328125 227.621094 478.222656 228.625 478.261719 228.496094 C 478.234375 228.476562 478.339844 229.546875 478.578125 231.707031 C 479.0625 235.511719 479.863281 239.300781 480.980469 243.074219 C 481.390625 244.578125 482.234375 246.964844 483.507812 250.234375 C 483.570312 250.390625 483.660156 250.5625 483.785156 250.75 L 484.332031 251.289062 C 484.386719 251.359375 484.433594 251.445312 484.464844 251.542969 C 484.773438 253.023438 485.496094 255.617188 486.636719 259.320312 C 487.386719 261.339844 488.074219 263.097656 488.695312 264.59375 C 490.363281 268.390625 492.0625 271.695312 493.789062 274.511719 C 493.828125 274.535156 493.828125 274.621094 493.785156 274.769531 L 493.316406 275.390625 " fill-opacity="1" fill-rule="nonzero"/><path fill="#f9f9f9" d="M 375.90625 67.476562 L 375.902344 67.484375 C 373.863281 69.636719 371.171875 70.890625 367.824219 71.25 C 367.371094 71.324219 366.441406 71.289062 365.035156 71.148438 C 364.292969 71.039062 363.582031 70.882812 362.902344 70.675781 C 361.1875 70.113281 359.867188 69.449219 358.941406 68.683594 C 358.898438 68.65625 358.875 68.59375 358.878906 68.5 C 359 68.027344 359.027344 67.773438 358.957031 67.738281 C 357.871094 66.378906 357.09375 65.003906 356.632812 63.617188 C 356.164062 62.035156 355.933594 60.917969 355.945312 60.269531 C 355.863281 58.925781 356.007812 57.578125 356.378906 56.234375 C 357.152344 53.9375 357.785156 52.398438 358.273438 51.617188 C 357.578125 52.9375 357.195312 53.839844 357.117188 54.328125 C 357 54.820312 357.007812 55.808594 357.140625 57.289062 C 357.5625 59.894531 358.628906 62.015625 360.34375 63.664062 C 360.761719 64.070312 361.242188 64.457031 361.789062 64.824219 L 362.523438 64.484375 C 363.148438 65.15625 363.640625 65.621094 364.003906 65.878906 C 364.382812 66.1875 364.828125 66.480469 365.339844 66.757812 C 366.132812 67.191406 367.015625 67.511719 367.988281 67.726562 C 370.496094 68.277344 372.9375 67.972656 375.3125 66.8125 C 375.3125 66.785156 375.355469 66.816406 375.441406 66.898438 L 375.90625 67.476562 " fill-opacity="1" fill-rule="nonzero"/><path fill="#f9f9f9" d="M 700.339844 83.558594 L 700.296875 83.503906 C 695.898438 76.3125 692.953125 71.679688 691.449219 69.605469 C 687.386719 63.699219 683.546875 58.722656 679.9375 54.675781 L 678.636719 52.371094 L 676.015625 48.386719 L 672.773438 43.820312 C 667.9375 37.496094 664.648438 33.386719 662.90625 31.492188 C 660.039062 28.222656 658.457031 26.480469 658.160156 26.257812 C 658.316406 26.289062 657.457031 25.605469 655.578125 24.207031 L 657.84375 25.875 C 662.539062 28.445312 665.761719 30.363281 667.5 31.636719 C 667.851562 31.789062 669.761719 33.175781 673.234375 35.796875 L 678.148438 40.011719 C 679.6875 41.351562 682.625 44.226562 686.960938 48.640625 C 690.257812 53.496094 693.542969 59.925781 696.824219 67.925781 C 698 70.871094 699.101562 74.382812 700.140625 78.464844 C 700.753906 81.222656 701.046875 82.640625 701.015625 82.714844 C 701.054688 82.914062 700.828125 83.195312 700.339844 83.558594 " fill-opacity="1" fill-rule="nonzero"/><path fill="#f8bc00" d="M 367.457031 138.59375 C 367.558594 138.597656 367.648438 138.65625 367.6875 138.75 C 376.757812 159.511719 385.761719 180.242188 384.257812 195.066406 C 382.882812 208.664062 372.671875 217.296875 363.875 217.1875 C 363.011719 217.175781 362.164062 217.082031 361.335938 216.898438 C 352.089844 214.847656 345.792969 201.8125 347.304688 186.886719 C 348.804688 172.085938 357.988281 155.410156 367.226562 138.726562 C 367.273438 138.644531 367.359375 138.59375 367.457031 138.59375 Z M 367.457031 138.59375 " fill-opacity="1" fill-rule="nonzero"/><path fill="#f9f9f9" d="M 372.066406 208.984375 L 372.058594 208.996094 C 371.605469 209.472656 371.121094 209.90625 370.601562 210.296875 C 370.382812 210.546875 369.535156 211.03125 368.054688 211.75 C 366.882812 212.257812 365.46875 212.601562 363.8125 212.78125 C 360.382812 212.851562 357.476562 211.988281 355.085938 210.183594 C 355.050781 210.152344 355.035156 210.09375 355.035156 210.011719 C 355.144531 209.589844 355.175781 209.34375 355.132812 209.269531 C 354.148438 208.042969 353.421875 206.816406 352.957031 205.589844 C 352.5 204.265625 352.214844 203.074219 352.105469 202.015625 C 351.992188 200.734375 352.132812 199.3125 352.535156 197.746094 C 353.449219 195.117188 354.082031 193.574219 354.429688 193.125 C 353.824219 194.242188 353.441406 195.144531 353.273438 195.835938 C 353.15625 196.121094 353.164062 197.105469 353.300781 198.800781 C 353.390625 199.378906 353.519531 199.933594 353.675781 200.464844 C 354.125 201.75 354.433594 202.496094 354.597656 202.695312 C 355.011719 203.527344 355.738281 204.441406 356.789062 205.441406 C 357.023438 205.667969 357.410156 205.964844 357.945312 206.335938 L 358.679688 205.996094 C 360.171875 207.695312 361.992188 208.777344 364.144531 209.238281 C 365.53125 209.46875 366.363281 209.558594 366.632812 209.503906 C 367.179688 209.496094 367.722656 209.449219 368.265625 209.363281 C 369.34375 209.1875 370.414062 208.835938 371.476562 208.3125 L 371.601562 208.410156 L 372.066406 208.984375 " fill-opacity="1" fill-rule="nonzero"/><path fill="#ffffff" d="M 459.347656 40.941406 L 459.425781 41.070312 C 461.203125 44.496094 463.015625 48.746094 464.863281 53.820312 C 466.953125 59.386719 469.132812 66.449219 471.402344 75.003906 C 475.449219 90.441406 478.351562 106.089844 480.109375 121.949219 C 480.609375 130.441406 480.796875 138.730469 480.664062 146.8125 C 480.578125 150.640625 480.441406 154.730469 480.261719 159.074219 C 480.230469 159.992188 479.972656 163.714844 479.492188 170.246094 C 478.445312 180.574219 477.621094 187.023438 477.027344 189.589844 C 476.402344 193.117188 476.011719 195.191406 475.855469 195.808594 L 473.222656 206.640625 C 473.296875 206.117188 473.320312 205.675781 473.289062 205.3125 C 473.15625 202.300781 473.054688 197.066406 472.988281 189.601562 L 473.015625 182.882812 C 472.953125 178.578125 472.917969 174.550781 472.910156 170.804688 L 472.617188 159.734375 L 472.007812 147.476562 L 471.09375 135.414062 L 469.75 121.921875 C 469.621094 120.664062 469.359375 117.148438 468.96875 111.382812 L 467.898438 100.246094 L 466.515625 88.757812 L 464.628906 75.644531 L 459.582031 46.398438 C 459.296875 44.46875 459.132812 43.078125 459.089844 42.230469 C 459.070312 42.082031 459.082031 41.863281 459.128906 41.574219 L 459.359375 41.109375 C 459.371094 41.066406 459.367188 41.011719 459.347656 40.941406 " fill-opacity="1" fill-rule="nonzero"/><path fill="#ffffff" d="M 557.9375 40.527344 L 557.964844 40.542969 C 564.613281 44.773438 569.523438 50.894531 572.6875 58.90625 L 572.796875 59.96875 C 573 60.847656 573.230469 62.160156 573.480469 63.910156 C 573.511719 64.097656 573.558594 64.609375 573.628906 65.441406 C 573.785156 67.808594 573.800781 69.769531 573.675781 71.324219 C 573.558594 72.898438 573.332031 74.484375 572.992188 76.082031 L 572.390625 78.464844 C 571.9375 79.90625 571.59375 80.941406 571.359375 81.566406 L 571.101562 82.777344 C 571.332031 81.886719 571.441406 81.078125 571.421875 80.347656 C 571.394531 77.410156 571.277344 75.179688 571.078125 73.65625 C 570.90625 72.15625 570.679688 70.648438 570.398438 69.125 L 569.90625 66.925781 C 569.472656 65.265625 569.152344 64.136719 568.949219 63.542969 C 568.871094 63.207031 568.570312 62.378906 568.054688 61.058594 C 568.027344 60.953125 567.902344 60.746094 567.667969 60.433594 C 567.394531 59.246094 566.941406 57.78125 566.316406 56.039062 C 565.957031 54.972656 565.40625 53.628906 564.664062 52.007812 C 562.808594 48.175781 560.53125 44.53125 557.828125 41.070312 C 557.796875 41.050781 557.78125 40.992188 557.777344 40.894531 L 557.9375 40.527344 " fill-opacity="1" fill-rule="nonzero"/><g clip-path="url(#91bb98dae6)"><path fill="#d35400" d="M 214.804688 612.121094 L 141.523438 538.703125 L 77.675781 474.738281 L 44.746094 345.414062 L 32.996094 342.570312 L 0.308594 334.675781 L 0.308594 612.121094 Z M 214.804688 612.121094 " fill-opacity="1" fill-rule="evenodd"/></g><g clip-path="url(#2c37a5dda1)"><path fill="#6e2c00" d="M 0.308594 397.210938 L 77.675781 474.738281 L 44.746094 345.414062 L 32.996094 342.570312 L 0.308594 334.675781 Z M 0.308594 397.210938 " fill-opacity="1" fill-rule="evenodd"/></g><g clip-path="url(#fd10092be2)"><path fill="#970101" d="M 0.308594 397.210938 L 44.746094 345.414062 L 32.996094 342.570312 L 0.308594 334.675781 Z M 0.308594 397.210938 " fill-opacity="1" fill-rule="evenodd"/></g><g clip-path="url(#68d410dd3d)"><path fill="#ffda75" d="M 214.808594 612.121094 L 0.578125 612.121094 L 77.6875 474.738281 L 141.535156 538.703125 Z M 214.808594 612.121094 " fill-opacity="1" fill-rule="evenodd"/></g><g clip-path="url(#d726846e13)"><path fill="#d35400" d="M 0.578125 612.121094 L 0.316406 612.121094 L 0.316406 397.214844 L 77.6875 474.738281 Z M 0.578125 612.121094 " fill-opacity="1" fill-rule="evenodd"/></g><g clip-path="url(#61bdfb2357)"><path fill="#d35400" d="M 575.507812 626.253906 L 649.554688 552.242188 L 714.074219 487.757812 L 747.347656 357.390625 L 759.21875 354.523438 L 792.253906 346.5625 L 792.253906 626.253906 Z M 575.507812 626.253906 " fill-opacity="1" fill-rule="evenodd"/></g><g clip-path="url(#fe84daa0c1)"><path fill="#6e2c00" d="M 792.253906 409.605469 L 714.074219 487.757812 L 747.347656 357.390625 L 759.21875 354.523438 L 792.253906 346.5625 Z M 792.253906 409.605469 " fill-opacity="1" fill-rule="evenodd"/></g><g clip-path="url(#02ea55b2c0)"><path fill="#970101" d="M 792.253906 409.605469 L 747.347656 357.390625 L 759.21875 354.523438 L 792.253906 346.5625 Z M 792.253906 409.605469 " fill-opacity="1" fill-rule="evenodd"/></g><g clip-path="url(#47f9f8418d)"><path fill="#ffda75" d="M 575.5 626.257812 L 791.980469 626.257812 L 714.0625 487.757812 L 649.546875 552.246094 Z M 575.5 626.257812 " fill-opacity="1" fill-rule="evenodd"/></g><path fill="#d35400" d="M 791.980469 626.257812 L 792.246094 626.257812 L 792.246094 409.609375 L 714.0625 487.757812 Z M 791.980469 626.257812 " fill-opacity="1" fill-rule="evenodd"/></svg>